<?xml version="1.0" standalone="no"?>
<!DOCTYPE svg PUBLIC "-//W3C//DTD SVG 1.1//EN" "http://www.w3.org/Graphics/SVG/1.1/DTD/svg11.dtd" >
<svg xmlns="http://www.w3.org/2000/svg">
<metadata>
This is a custom SVG webfont generated by Font Squirrel.
Copyright   : c 2000 Nick Curtis All Rights Reserved Generated by Fontographer 352 
</metadata>
<defs>
<font id="webfontkmxdgsb9" horiz-adv-x="1024" >
<font-face units-per-em="2048" ascent="1638" descent="-410" />
<missing-glyph horiz-adv-x="409" />
<glyph unicode=" "  horiz-adv-x="409" />
<glyph unicode="&#x09;" horiz-adv-x="409" />
<glyph unicode="&#xa0;" horiz-adv-x="409" />
<glyph unicode="!" horiz-adv-x="247" d="M16 125q0 39 27 66.5t66 27.5t65.5 -27.5t26.5 -66.5t-27 -65.5t-65 -26.5q-39 0 -66 26.5t-27 65.5zM20 1319h216l-21 -245q-10 -122 -18 -243l-21 -242l-20 -245h-82q-6 123 -13.5 245t-13.5 242q-6 121 -13.5 243t-13.5 245z" />
<glyph unicode="&#x22;" horiz-adv-x="376" d="M16 1186l142 246l63 -37l-141 -246zM160 1165l141 246l64 -37l-142 -246z" />
<glyph unicode="#" />
<glyph unicode="$" horiz-adv-x="647" d="M31 485q0 10 8 19.5t20 9.5q4 0 8.5 -1t8.5 -5q33 -20 76 -30.5t92 -12.5l28 207l-96 95l-98 95q-14 16 -22.5 43t-8.5 58q0 59 35 108t102 49q39 -2 77 -2h77l8 53q4 27 6 54l8 51q4 27 7 53q2 14 11 21.5t19 5.5h4h2q8 -4 15.5 -10.5t5.5 -18.5v-3v-3l-29 -205h78 q39 0 78 -2q16 0 23.5 -9t7.5 -20q-2 -10 -9.5 -19t-23.5 -9h-41q-20 0 -39 2h-41h-41l-12 -88l33 -32l32 -32q14 -16 31 -31l33 -32q61 -59 86.5 -112.5t25.5 -100.5v-4v-2v-4v-5q-8 -80 -71.5 -126t-138.5 -64q-31 -8 -60 -12t-53 -6q-6 -39 -11.5 -79t-11.5 -79t-11 -79 t-11 -79q-2 -12 -8.5 -18t-14.5 -8h-3h-3h-3h-1q-10 2 -18.5 9t-6.5 19v3v3q10 78 21.5 155t24.5 153q-55 2 -104.5 15t-86.5 36q-8 4 -11 11t-3 15zM283 1061l41 -39l4 37zM301 465q37 4 74 12t71 23l-122 121z" />
<glyph unicode="%" />
<glyph unicode="&#x26;" horiz-adv-x="1382" d="M61 311v7q0 3 2 8v6v6q25 207 173.5 308.5t322.5 164.5q6 2 13.5 5t13.5 5q-6 2 -11.5 5t-11.5 5q-88 45 -161.5 124t-75.5 186q0 121 76.5 170t177.5 49h20q10 0 23 -2q66 -6 129 -28.5t108 -57.5q4 16 7 32.5t7 34.5q4 16 7.5 33t7.5 33q2 14 10 20.5t19 4.5h3 q9 -2 16 -9.5t7 -19.5v-3v-3l-8 -42l-8 -42l-8 -43l-9 -41q31 -37 46.5 -75t15.5 -79q0 -39 -13.5 -77t-37.5 -74l-18 -31q-9 -16 -17 -33l-107 19l8 39l9 40l8 38l8 40v4q0 2 2 4v5v4q-2 55 -59.5 87.5t-126.5 47.5q-29 6 -56.5 9t-52.5 3q-14 0 -25.5 -1t-21.5 -3 q-45 -6 -66.5 -21.5t-21.5 -44.5q0 -10 3 -22l7 -27q31 -88 109 -142t166 -87l49 -15l47 -14l14 -121q-4 -2 -9 -3t-11 -3q-27 -10 -55.5 -19t-57.5 -20q-162 -57 -301 -147t-170 -281q35 -20 73 -33.5t79 -15.5q57 -4 124.5 2t135.5 23q160 41 298 136t167 247 q-33 -18 -72 -34l-80 -32l-32 -12q-15 -6 -31 -10q-98 -39 -186.5 -87.5t-127.5 -131.5q0 -2 -1 -4l-1 -1q-4 -14 -10 -24t-20 -10h-4q-3 0 -4 1t-3 1q-14 4 -18 11t-4 17q0 6 1 12.5t3 12.5q0 2 2 4q0 6 2 11t2 9q31 172 156 256t274 148q2 2 5 3t5 1q111 49 210.5 107.5 t144.5 171.5q2 12 10 18t18 4q10 0 19.5 -8t9.5 -25v-2v-1q-18 -136 -70.5 -221t-124.5 -138l-8 -66q-4 -33 -10 -65q-14 -72 -46 -143.5t-95 -135.5q-94 -94 -208 -140t-235 -46q-39 0 -77.5 4t-75.5 14q-39 8 -78 21.5t-78 32.5q-66 31 -110 80.5t-44 121.5z" />
<glyph unicode="'" horiz-adv-x="210" d="M16 1186l142 246l63 -37l-141 -246z" />
<glyph unicode="(" horiz-adv-x="583" d="M27 555q2 260 108.5 508t319.5 438l82 -117q-186 -166 -281.5 -385t-93.5 -450q0 -229 94 -446.5t281 -383.5v-2l-82 -114q-215 190 -321.5 440t-106.5 512z" />
<glyph unicode=")" horiz-adv-x="583" d="M45 -283q184 166 278.5 378t96.5 435v12v11q0 229 -93.5 447.5t-281.5 383.5l82 117q211 -186 317.5 -431t110.5 -499v-11v-11q-2 -260 -108.5 -508t-319.5 -436z" />
<glyph unicode="*" horiz-adv-x="321" d="M33 1317l61 35l-61 34l39 68l61 -35v72h78v-72l61 35l39 -68l-61 -34l61 -35l-39 -68l-61 35v-70h-78v72l-59 -37z" />
<glyph unicode="+" />
<glyph unicode="," horiz-adv-x="227" d="M10 106l144 99q2 -2 5 -4t5 -4q10 -8 19.5 -18.5t15.5 -20.5q10 -16 14 -34t4 -34q0 -45 -25.5 -88t-56.5 -74l-42 -37q-22 -18 -48 -32l-29 47q2 2 14 10l25 18l3 4q1 1 3 1l24 19q11 9 9 11q10 10 17.5 23.5t9.5 30.5q2 4 2 7v7q0 16 -6 31.5t-17 29.5l-57 -41z" />
<glyph unicode="-" horiz-adv-x="276" d="M18 537v73h215v-73h-215z" />
<glyph unicode="." horiz-adv-x="247" d="M16 125q0 39 27 66.5t66 27.5t65.5 -27.5t26.5 -66.5t-27 -65.5t-65 -26.5q-39 0 -66 26.5t-27 65.5z" />
<glyph unicode="/" horiz-adv-x="305" d="M8 -164l246 1577h74l-246 -1577h-74z" />
<glyph unicode="0" horiz-adv-x="851" d="M41 635q2 47 12 101.5t29 109.5q43 141 137 259t240 118q143 0 222 -113t110 -248q14 -61 18 -121.5t2 -109.5q-2 -47 -12.5 -103.5t-28.5 -113.5q-47 -143 -144.5 -262t-248.5 -109q-154 10 -252 181t-84 411zM283 633q2 -25 9 -92.5t23 -143.5q20 -94 55.5 -172 t88.5 -75q63 4 102 137t29 344q-2 27 -9.5 93.5t-21.5 141.5q-20 92 -54 170t-89 78t-83 -75.5t-40 -166.5q-8 -80 -9 -149.5t-1 -87.5v-2z" />
<glyph unicode="1" horiz-adv-x="509" d="M23 760v7q0 3 2 5l155 381l226 84l-28 -565l-28 -566l-217 -98q10 248 21.5 495t21.5 494l-24 -62l-23 -63l-25 -63l-24 -61q-4 -8 -11.5 -13.5t-15.5 -5.5h-3q-11 2 -19 10.5t-8 20.5z" />
<glyph unicode="2" horiz-adv-x="761" d="M35 844q0 10 1 19t1 18q4 33 13 64.5t22 58.5q47 102 136 170.5t195 68.5q29 0 60 -6t61 -18q86 -35 123 -93.5t35 -130.5q0 -45 -11.5 -92t-33.5 -98q-47 -117 -120 -222.5t-150 -205.5l-29 -37l-29 -37l322 23q4 27 9 52t11 52q4 27 9.5 52.5t9.5 52.5q2 12 10 18t18 6 h3h1q8 -2 15.5 -9t7.5 -20v-3v-3l-20 -117l-21 -118q-10 -59 -21.5 -117.5t-21.5 -118.5h-600l40 63l40 64l19.5 28.5t17.5 29.5l141 224q70 114 129 232q23 45 36 94.5t13 100.5q0 33 -6 64.5t-20 62.5q-20 45 -54.5 70.5t-77.5 23.5q-16 0 -34.5 -3t-36.5 -13 q-70 -31 -90.5 -89.5t-16.5 -130.5q16 -14 36 -21t40 -7q23 2 43.5 12t34.5 31q4 6 7 9t7 5t8.5 3t6.5 1q12 0 20 -8t8 -20q0 -2 -1 -3.5t-1 -3.5t-1 -5t-3 -7l-13 -31q-7 -16 -18 -32q-25 -47 -59.5 -86t-81.5 -37q-10 0 -21.5 2t-21.5 6q-53 23 -75.5 67t-20.5 95z" />
<glyph unicode="3" horiz-adv-x="737" d="M34 908.5q1 9.5 1 17.5q2 18 5 36.5t9 38.5q6 18 14.5 37t18.5 37q43 78 125 132.5t207 54.5q16 0 31.5 -1t31.5 -4q100 -12 142.5 -69.5t42.5 -130.5q0 -16 -2.5 -32.5t-6.5 -35.5q-8 -45 -30.5 -90t-53.5 -82l-26 -29l-29 -28l-15 -14.5l-16 -14.5q12 -2 23.5 -3 t23.5 -5q33 -6 65 -20.5t52 -38.5q29 -35 42 -76t13 -84q0 -16 -2 -33l-4 -33q-14 -74 -50 -142.5t-75 -119.5q-2 -2 -3 -4t-3 -4q-51 -68 -128 -111t-165 -43q-119 0 -177 82t-58 185q0 12 1 25t3 28q2 20 7 39.5t13 38.5q4 10 11.5 15t15.5 3q10 0 19.5 -7t9.5 -20v-5 q0 -3 -2 -7v-3v-3q0 -8 5 -17l11 -20q4 -4 7 -8t7 -8q8 -10 17 -19l12 -12q33 -31 81 -52.5t99 -29.5q14 -2 27.5 -3t28.5 -1q23 0 45 3t43 11q43 16 60 46t17 67q0 12 -2 26.5t-6 28.5q-12 39 -34.5 76t-47.5 62q-39 39 -87 62.5t-99 41.5l34 42l36 44q49 61 89 130t40 140 q0 20 -4.5 40t-14.5 40q-20 41 -60 59.5t-87 18.5h-11q-5 0 -12 -2q-51 -4 -97 -29.5t-65 -70.5q-4 -10 -6 -21.5t-2 -23.5q0 -14 3 -28.5t10 -31.5q8 -20 22 -29.5t29 -9.5h5q3 0 5 2q18 2 35.5 14.5t27.5 26.5l8 7q3 3 7 6q2 2 6 3t6 1q12 -2 20.5 -10.5t8.5 -22.5v-5 q0 -3 -2 -7t-3 -7.5t-1 -7.5l-4 -16l-5 -17q-14 -51 -36.5 -93t-87.5 -54q-8 -2 -15 -2h-12q-68 0 -98.5 51t-32.5 113q-2 10 -1 19.5z" />
<glyph unicode="4" horiz-adv-x="829" d="M37 330l99 232l100 231l99 230l99 232l176 -116q-2 -86 -5 -173t-5 -173q-2 -88 -5 -174.5t-5 -172.5l203 5l-72 -168l-137 -23l-2 -151l-222 -132l9 261zM176 504l199 -53l16 561z" />
<glyph unicode="5" horiz-adv-x="720" d="M33 262l33 25q16 12 34 24l33 26l33 25q6 -8 13 -15t14 -15q35 -41 71.5 -75t91.5 -42q8 -2 17 -2h16h12q6 0 11 2q53 4 99 34t54 85q0 4 1 9t1 11v10v9v19q0 9 -2 18q-14 86 -93 112.5t-169 28.5q-25 2 -50 2h-48h-44h-40q4 82 9 164t11 166q4 82 9.5 164.5t9.5 164.5 h393q8 31 15 63t16 64q2 10 9 16.5t15 8.5h3h3q10 -2 18.5 -8t8.5 -21v-4q-2 0 -2 -1v-3q-20 -94 -44 -189l-46 -192h-346l-13 -182h50h51h49h49q51 0 89 -5t71 -24q27 -14 49.5 -39.5t44.5 -66.5l8 -17q4 -8 8 -18q16 -33 22.5 -64.5t6.5 -66.5v-9v-12q-8 -113 -80.5 -216 t-173.5 -152q-37 -18 -71.5 -27.5t-67.5 -9.5q-82 2 -148.5 55t-105.5 150q0 2 -1 4l-3 6q-2 2 -3 5t-1 5z" />
<glyph unicode="6" horiz-adv-x="765" d="M36 463q-3 82 3 172q4 49 11 103.5t22 109.5q31 137 103.5 255t209.5 146q20 4 38.5 6t37.5 2q84 0 145.5 -45t89.5 -131l-125 -102q-8 12 -15 25.5t-17 27.5q-25 39 -59 73t-79 34h-8q-4 0 -8 -2q-6 0 -10 -1t-8 -3q-78 -27 -113 -143t-41 -249q-2 -31 -2 -61.5t2 -58.5 q4 6 8 11t8 9q47 53 115 99t139 55q6 2 13 2h12q29 0 55.5 -8.5t50.5 -26.5q63 -45 91 -108.5t28 -133.5q0 -18 -2 -36.5t-6 -37.5q-23 -125 -105.5 -235.5t-189.5 -147.5q-20 -8 -40.5 -11t-41.5 -3q-76 0 -137 43t-102 111q-14 25 -24.5 49t-18.5 47q-27 82 -30 164z M221 522q4 -39 11.5 -71.5t15.5 -55.5q4 -10 8 -19t10 -20q29 -55 85.5 -101t117.5 -46q10 0 21.5 3t21.5 5q51 16 71.5 57t20.5 88v12v11q-4 33 -14 64.5t-23 58.5q-25 49 -74 78.5t-104 31.5h-5h-5q-39 0 -74 -13t-63 -44q-2 -4 -5.5 -9t-5.5 -9q0 -2 -1 -3l-1 -1l-4 -9z " />
<glyph unicode="7" horiz-adv-x="636" d="M29 905v2v1q6 46 13 92.5t13 91.5l13 91l12 91q2 14 11 20t20 6q2 0 4 -1l2 -1q8 -2 15 -8t5 -18v-3v-3l-8 -54h479q-4 -41 -9 -81.5t-9 -81.5l-1 -2l-1 -3q0 -2 -1 -4t-3 -4q-96 -147 -145.5 -302.5t-47.5 -323.5q0 -53 5 -107.5t16 -112.5q18 4 35.5 9.5l35.5 11.5 q16 4 34 9t36 9h3q1 0 3 2h1h3q12 -2 19.5 -10t7.5 -18q0 -8 -5 -16.5t-18 -12.5l-225 -61l-225 -62q59 250 144 487.5t220 456.5h-189h-192q-4 -23 -7 -46t-7 -48q-2 -14 -10 -19t-19 -5q-10 0 -19 7t-9 21z" />
<glyph unicode="8" horiz-adv-x="733" d="M33 360q0 14 2 29l4 29q4 14 9 28.5t11 28.5q2 4 5.5 9t7.5 12q16 25 36.5 49t43.5 47q8 8 17 16t17 17q-63 53 -80.5 125.5t-17.5 148.5q2 111 62.5 202t162.5 132q16 6 32.5 11t33.5 9l33 4q16 2 32 3q100 -2 175 -63.5t79 -182.5q4 -82 -19.5 -134.5t-66.5 -97.5 l-34 -33l-39 -36q70 -53 104.5 -117t34.5 -141q0 -29 -6 -63t-17 -68q-4 -10 -7 -20.5t-7 -20.5q-27 -63 -71 -121t-105 -86q-29 -14 -58.5 -20.5t-58.5 -6.5q-121 0 -218 94t-97 217zM174 408q2 -37 16.5 -73t38.5 -61q27 -25 65 -41t77 -20q6 -2 13 -2h13q47 0 87 20.5 t59 67.5q2 4 3 9t3 11v10v9q0 53 -51.5 96t-110.5 76q-41 23 -79 40t-60 32q-39 -25 -57.5 -69t-16.5 -91v-7v-7zM217 993q0 -14 3 -32.5t9 -36.5q20 -59 69.5 -87t102.5 -49l40 -16q19 -8 38 -18q27 33 45.5 76.5t22.5 91.5q2 8 2 15v15q0 53 -24.5 98.5t-84.5 65.5 q-20 8 -40.5 11t-39.5 3q-63 0 -103 -37t-40 -100z" />
<glyph unicode="9" horiz-adv-x="768" d="M35 807q0 16 1 31.5t3 31.5q18 121 95 227.5t183 145.5q23 8 42.5 11t39.5 3q76 0 139.5 -44t104.5 -109q6 -8 10 -17.5t11 -17.5q49 -94 59 -190.5t8 -204.5q0 -49 -5 -106.5t-17 -114.5q-25 -133 -92.5 -249t-202.5 -147q-6 -2 -12.5 -3t-12.5 -1q-12 -2 -24.5 -3 t-24.5 -1q-84 0 -147.5 46t-96.5 130l121 103l19 -28l20 -32q27 -37 60.5 -68.5t76.5 -31.5q10 0 19.5 2t19.5 6q74 29 102.5 140.5t28.5 242.5q0 33 -1 64.5t-5 62.5q-4 -4 -8 -9t-8 -11q-45 -55 -115 -102.5t-145 -51.5h-6h-7q-27 0 -54.5 8t-51.5 25q-68 47 -97.5 116.5 t-29.5 145.5zM154 963q0 -10 1 -20.5t3 -20.5q4 -35 16 -67t25 -54q25 -47 74 -77t102 -36h11h9q37 0 71 13.5t60 43.5q4 4 6.5 10.5t6.5 12.5v1v3q2 2 3 6t3 6q-6 39 -14.5 72t-18.5 55q-4 10 -9 20l-11 19q-29 51 -80.5 94t-108.5 52q-4 2 -10 2h-12q-27 0 -50.5 -10.5 t-46.5 -32.5q-16 -16 -23 -39.5t-7 -52.5z" />
<glyph unicode=":" horiz-adv-x="247" d="M16 330q0 39 27 66.5t66 27.5t65.5 -27.5t26.5 -66.5t-27 -65.5t-65 -26.5q-39 0 -66 26.5t-27 65.5zM16 637q0 39 27 66.5t66 27.5t65.5 -27.5t26.5 -66.5t-27 -65.5t-65 -26.5q-39 0 -66 26.5t-27 65.5z" />
<glyph unicode=";" horiz-adv-x="247" d="M10 311l144 99q2 -2 5 -4.5t5 -4.5q10 -8 19.5 -18t15.5 -21q10 -16 14 -33.5t4 -33.5q0 -45 -25.5 -89t-56.5 -75q-20 -18 -41.5 -35.5t-48.5 -34.5l-29 50q2 0 14 8l25 18l3 3q1 1 3 1l24 20q11 9 9 11q10 10 17.5 24.5t9.5 30.5q2 4 2 7v8q0 16 -6 31.5t-17 29.5 l-57 -41zM16 637q0 39 27 66.5t66 27.5t65.5 -27.5t26.5 -66.5t-27 -65.5t-65 -26.5q-39 0 -66 26.5t-27 65.5z" />
<glyph unicode="&#x3c;" />
<glyph unicode="=" />
<glyph unicode="&#x3e;" />
<glyph unicode="?" horiz-adv-x="681" d="M31 926q2 127 97 206.5t222 77.5h21q10 0 20 -2q10 0 21 -2l20 -4q109 -25 164 -98.5t55 -163.5q0 -51 -17.5 -100t-51.5 -97q-20 -27 -46 -49l-53 -45l-2 -2l-2 -2q-39 -31 -73.5 -64.5t-55.5 -80.5q-6 -16 -11 -31.5t-9 -32.5q-8 -31 -11.5 -61.5t-5.5 -65.5h-80 q4 86 21.5 157t50.5 138q14 31 32.5 62.5t41.5 64.5q4 8 10 16.5t10 16.5q18 31 35 67.5t25 73.5q4 14 6 29.5t2 30.5q0 29 -8 53t-25 45q-33 39 -69.5 56.5t-75.5 17.5q-70 -2 -127.5 -52.5t-69.5 -128.5q12 6 24.5 9.5t22.5 3.5q41 0 71 -31t30 -72q0 -18 -7.5 -35.5 t-23.5 -33.5q-14 -14 -32.5 -20.5t-39.5 -6.5q-31 0 -57.5 16.5t-34.5 47.5q-8 25 -11 48.5t-3 43.5zM178 125q0 39 27.5 66.5t66.5 27.5t66 -27.5t27 -66.5t-27 -65.5t-66 -26.5t-66.5 26.5t-27.5 65.5z" />
<glyph unicode="@" horiz-adv-x="1417" d="M63 694q0 145 51.5 268t153.5 226q102 102 225 152.5t269 52.5q127 0 231.5 -45t190.5 -136q84 -88 126 -191t42 -220q0 -39 -7.5 -91.5t-29.5 -113.5q-10 -23 -27.5 -56.5t-42.5 -70.5q-12 -18 -25.5 -35.5t-29.5 -34.5q-31 -33 -69 -48t-85 -17q-8 0 -36.5 3t-61.5 23 q-4 2 -9 5.5t-9 7.5q-16 12 -31 28.5t-25 36.5l-24 -23q-12 -11 -23 -20q-31 -23 -65.5 -36t-92.5 -23q-4 0 -7 -1t-7 -1h-4h-4q-2 -2 -4 -2h-6q-20 0 -50 7t-63 23q-25 12 -48.5 32t-41.5 48q-27 43 -40 92.5t-17 100.5q0 37 10 83t31 95q14 33 34.5 66.5t46.5 64.5 q53 59 115 89t135 32h151h171q-6 -31 -11.5 -63.5t-11.5 -63.5q-6 -33 -11 -66.5t-11 -68.5q-8 -63 -18.5 -128t-26.5 -134q0 -6 1 -16.5t5 -20.5q4 -16 17.5 -30.5t37.5 -16.5q20 0 41 9t41 30q53 63 83 142t32 167v12v12q-4 82 -36 161t-101 143q-59 63 -143.5 100 t-186.5 37q-119 0 -220.5 -42t-187.5 -128q-82 -82 -124 -183.5t-44 -222.5q0 -117 42 -218t126 -187q84 -84 186.5 -126t221.5 -44q104 0 201.5 37t173.5 104l82 -92q-96 -82 -213 -123t-246 -45q-131 0 -257 49t-235 154q-90 90 -147.5 218t-57.5 273zM492 649 q-2 -31 1 -66.5t31 -72.5q4 -4 7.5 -8t7.5 -8q18 -20 40.5 -29.5t65.5 -9.5q10 0 32.5 7t47.5 21q37 23 63.5 52.5t51.5 72.5q14 29 22 59.5l17 65.5q0 8 2 17.5t4 17.5q4 12 6 26l4 27q2 14 5 30.5t5 33.5q2 6 3 13t3 15q0 6 1 13.5t3 15.5h-176q-45 0 -86 -20.5t-75 -63.5 q-33 -39 -53.5 -84t-30.5 -96q0 -6 -1 -13.5t-1 -15.5z" />
<glyph unicode="A" horiz-adv-x="1355" d="M0 420v8q10 66 22 131l23 131l25 131l24 131q0 4 2 7.5t4 5.5q102 141 276.5 228t364.5 118q53 10 105.5 14t103.5 4q53 0 105.5 -5t99.5 -15q4 0 7 -1t7 -1q4 -2 7.5 -3t7.5 -1l-22 -107l-21 -106l-64 -19l39 -59q-12 -53 -21.5 -113.5t-11.5 -120.5v-20v-21v-11v-9 q2 -111 31 -216.5t96 -185.5q2 -2 4.5 -3t4.5 -1h4h4h3h3q14 2 28.5 14.5t22.5 26.5q2 6 4 10.5t2 8.5q2 12 8.5 17t14.5 7h3h3h3q11 -2 19 -9q7 -6 7 -15v-3.5v-3.5v-4q-4 -23 -11.5 -54.5t-17.5 -63.5q-20 -61 -56 -111.5t-94 -50.5q-51 0 -91 43t-66 96q-10 20 -19.5 41 t-15.5 37l-62 -197q-63 -18 -133.5 -28.5t-142.5 -10.5h-19h-18q-188 8 -357 91.5t-243 259.5q-2 4 -2 8zM98 645q-1 -13 -1 -26q0 -123 106 -196q117 -81 258 -116q72 -18 138.5 -26.5t117.5 -8.5q57 0 108.5 5.5t89.5 17.5l31 98q-18 70 -28.5 146.5t-10.5 154.5 q0 106 20.5 209t65.5 191l-4 4q-29 2 -62 1q-48 0 -103 -3q-91 -6 -187 -23q-193 -39 -358 -139.5t-181 -288.5z" />
<glyph unicode="B" horiz-adv-x="1660" d="M10 895q0 16 3 34.5t7 39.5q31 123 167.5 184t293.5 86q113 18 218.5 22.5t170.5 4.5q59 0 154.5 -2t198.5 -19q162 -23 296 -90q126 -64 126 -202v-17q-6 -131 -102.5 -212t-209.5 -124l-38 -12l-38 -13q10 -2 21.5 -5t24.5 -5q68 -20 125 -61q56 -40 57 -114v-10v-10 q0 -7 -2 -18q-29 -162 -162 -229.5t-285 -69.5h-4h-4q-70 0 -136.5 11.5t-123.5 31.5v-205h-78q2 266 -139 440.5t-363 301.5q-78 45 -128 110.5t-50 151.5zM74 877q0 -4 2 -9.5t4 -9.5q8 -10 23.5 -19.5t39.5 -17.5q184 -63 329.5 -171.5t225.5 -291.5v664h70v-764 q55 -12 121.5 -20.5t136.5 -8.5h9h9q100 4 195.5 23.5t165.5 62.5v12q0 5 2 11q0 6 1 11t1 11q-137 55 -280.5 86t-288.5 46l-2 159q16 2 33.5 5l35.5 6q121 20 241 48.5t232 73.5q12 4 40 16.5t59 30.5q23 12 44 26.5t36 29.5q12 10 18 20.5t6 20.5q0 55 -121 82.5 t-264 40.5q-119 8 -224 10q-53 1 -89 1t-56 -1q-162 -4 -302 -21.5t-246 -46.5q-16 -4 -41 -12t-52 -18q-43 -16 -78.5 -38.5t-35.5 -47.5z" />
<glyph unicode="C" horiz-adv-x="1177" d="M12 553q0 16 2 33l4 32q27 174 111 317.5t227 246.5q72 51 156 86t172 35h8h10q4 0 8.5 -1.5t8.5 -1.5q162 -16 241.5 -143t79.5 -276v-3v-4q0 -27 -2 -54t-8 -56q-12 -55 -31.5 -109.5t-42.5 -107.5q-4 4 -8 7t-6 7q-4 2 -8 6t-8 6q-45 41 -63.5 86.5t-18.5 90.5 q0 43 11 88t24 88l12 40q6 19 10 40l-3 3l-3 3q-27 23 -61.5 43t-73.5 35q-23 8 -44.5 13t-41.5 5h-18q-74 0 -142 -30q-76 -34 -143 -81q-16 -10 -32 -22l-32 -25q-94 -76 -170 -183q-67 -95 -67 -201q0 -14 2 -29q4 -37 11 -71t21 -63q37 -74 118 -110.5t181 -52.5 q23 -2 44.5 -5.5t44.5 -3.5q20 -2 42.5 -3t43.5 -1q20 0 41.5 1t44.5 3q127 6 253.5 31t247.5 55l-20 -137q-98 -53 -219 -85t-248 -34h-12h-13q-186 0 -352 74t-248 242q-20 41 -30.5 86t-10.5 90z" />
<glyph unicode="D" horiz-adv-x="1437" d="M10 954q0 8 1 17.5t3 17.5q8 51 40 100.5t71 79.5q102 82 221 125t242 47q23 2 44 2t42 -2q4 29 10 59t12 56q4 14 12.5 20.5t18.5 6.5q10 -2 17.5 -9.5t7.5 -19.5v-4v-4l-21 -111q262 -33 464 -221t216 -457v-14q0 -39 -9 -79q-11 -48 -32 -97q-39 -94 -106.5 -182 t-141.5 -146q-20 -18 -40.5 -31.5t-41.5 -23.5q-20 -10 -44.5 -15.5t-53.5 -5.5q-35 0 -70.5 7.5t-74.5 17.5q-39 12 -80 28.5t-76 35.5q-39 18 -72 35l-57 30l-31 -154l-16 11.5t-16 9.5q-117 76 -178.5 162t-112.5 221l149 158l99 -73l98 -71l28 144q-123 25 -233.5 78 t-214.5 118q-39 25 -56.5 59.5t-17.5 73.5zM121 1040q0 -47 73.5 -86t161.5 -67q68 -23 129.5 -37t87.5 -19l58 297q-10 2 -22.5 5.5t-26.5 5.5q-37 6 -86.5 12t-100.5 8h-11h-11q-82 0 -152.5 -20.5t-95.5 -77.5q0 -2 -1 -5t-1 -5q-2 -2 -2 -5v-6zM260 369q31 -66 76 -118 t104 -95l19 92l-103 61zM557 446q96 -66 200.5 -121t215.5 -96q23 -8 42 -12t38 -4q88 0 137 78t55 172v13v13q0 23 -2 42.5t-6 37.5q-47 225 -191.5 352.5t-357.5 190.5l-57 -289q68 -8 135.5 -11t134.5 -7q-43 -88 -110.5 -139.5t-165.5 -51.5h-9h-8q-6 0 -10 1t-8 1z" />
<glyph unicode="E" horiz-adv-x="1298" d="M14 395v12v9q0 4 1 9t1 11q18 147 134 223t251 107q45 10 90.5 16l86.5 11q-94 31 -174 83t-103 168q-2 10 -3 21.5t-1 21.5q0 100 78 174t172 97q4 0 7 1t5 1q8 2 15.5 3t15.5 1q6 2 13 2h15q8 0 17.5 -1t19.5 -1q76 -10 150 -48t131 -85q0 2 1 5t1 5v5v5q0 8 -1 16.5 t-3 16.5v3v3q-2 6 -3 13.5t-1 13.5v4v4q0 12 9 19.5t19 7.5h4q1 0 3 -2q8 -2 14 -8.5t8 -18.5q2 -18 4 -34l4 -29v-6v-5q0 -14 -3 -29.5t-11 -33.5q51 -55 74.5 -115.5t23.5 -132.5v-23q0 -12 -2 -24t-5 -26.5t-7 -30.5q-12 -35 -35.5 -65t-56.5 -30q-8 0 -17.5 3t-19.5 8 q-45 23 -60.5 65.5t-15.5 93.5q0 35 6 70t13 65q0 4 1 9.5t3 9.5q-53 43 -122 74.5t-138 46.5q-33 6 -66 9t-63 1q-57 -4 -98.5 -26.5t-41.5 -80.5q0 -8 1 -15t3 -17q18 -96 96 -143.5t171 -75.5q14 -4 28.5 -9.5t28.5 -9.5l40 -12q19 -6 38 -14l33 -189q-31 4 -61 6t-58 6 q-29 2 -58.5 3t-60.5 1q-39 0 -81 -3t-83 -11q-27 -4 -60.5 -13t-68.5 -22q-70 -25 -126 -65.5t-56 -104.5v-4q0 -2 2 -4v-4v-4q6 -35 35.5 -54.5t62.5 -29.5l32 -8q15 -4 28 -6q88 -20 175 -29.5t173 -9.5q182 0 358 42t344 122l-16 -34l-17 -34q-4 -8 -8 -17.5t-8 -17.5 l-26 -50l-25 -50q-10 -23 -54 -43.5t-94 -38.5l-78.5 -22.5t-56.5 -14.5q-51 -10 -126.5 -18.5t-159.5 -8.5q-29 0 -59 1t-58 4q-184 16 -337 87.5t-153 241.5zM920 909q0 -41 10 -75.5t39 -34.5h1q1 0 3 2h3h1l7 18q3 8 3 19q2 8 3 17t1 17q0 39 -16.5 75t-44.5 69 q0 -4 -1 -9.5t-3 -9.5q-2 -18 -4 -40.5t-2 -47.5z" />
<glyph unicode="F" horiz-adv-x="1478" d="M6 969q0 170 127 279.5t279 142.5q4 0 7 1t5 1q31 6 62.5 8t64.5 2q23 0 43 -1t41 -3q150 -10 300 -24.5t300 -31.5q59 -4 120 -10l120 -12q-4 -10 -10 -19l-11 -20q-33 -63 -139.5 -85.5t-247.5 -22.5q-37 -63 -50 -128t-13 -131q0 -51 6 -103t14 -105l233 -23 l-112 -127l-107 10q0 -37 -4 -77.5t-14 -81.5q-29 -135 -111 -248q-80 -111 -218 -111h-5h-16q-8 0 -19 2q-143 16 -202.5 122t-79.5 228l-4 32l-5 30l158 131v-23q0 -63 9 -121q11 -69 48 -135q6 -14 15 -26l18 -27l13 -16q6 -8 14 -17q27 -31 62.5 -55t74.5 -24 q6 0 13.5 1t13.5 3t13 6t13 8q14 10 19.5 32.5t5.5 53.5q0 14 -1 29.5t-3 31.5l-4 35t-6 33q-2 10 -3.5 20.5t-3.5 18.5q-8 41 -12 83l-8 85l-447 41l140 127l150.5 -15.5t148.5 -13.5q2 139 44 230.5t101 173.5q6 12 15 22l16 21q-137 6 -272.5 22t-268.5 37q-8 0 -15 1 t-13 3q-39 4 -77 9t-75 12q-27 -37 -43 -84.5t-23 -94.5q-4 -18 -5 -36.5t-1 -36.5q0 -14 1 -29.5t3 -32.5q2 -8 5 -19l4 -22q8 -29 23.5 -52.5t41.5 -23.5q8 0 17.5 3.5t19.5 11.5q25 39 42 83t28 91q6 25 10 49l8 49l57 -6q-4 -31 -13 -75t-23 -89q-23 -70 -59 -131 t-91 -78q-14 -4 -28.5 -6t-28.5 -2q-88 0 -141.5 75t-53.5 165z" />
<glyph unicode="G" horiz-adv-x="1540" d="M12 715q0 219 219.5 366.5t481.5 227.5q156 49 302 72.5t247 25.5q23 0 50 -1t56 -5q61 -8 112.5 -37t51.5 -96q2 -49 -18.5 -84t-49.5 -66q-4 -6 -10 -12t-10 -14q-6 -6 -11.5 -12.5t-11.5 -12.5q-2 -4 -7 -7t-9 -3q-2 -2 -4 -2h-4q-10 0 -19.5 8t-9.5 20v6q0 3 2 5 q0 2 2 5t4 5q6 8 13.5 16l15.5 17q8 6 15 14l14 16q2 2 4 5.5t4 7.5q0 2 1 5t1 5q0 8 -5 12t-16 6q-58 4 -114.5 4t-111.5 -4q-110 -8 -218 -30q-59 -12 -117.5 -28.5t-118.5 -37.5l-132 -46q-89 -32 -187 -79q-131 -59 -239.5 -140t-108.5 -173v-11q0 -5 2 -10q0 -4 1 -9 t3 -11q16 -49 96 -67.5t178 -18.5h22h21q57 2 110.5 7t98.5 11q35 4 62 8l41 7q41 8 100 25.5t125 43.5q43 18 85 41t79 47q2 154 21.5 273.5t72.5 132.5q2 0 5 1t5 1h5h5q27 0 45.5 -16.5t26.5 -45.5q6 -20 9 -40.5t3 -43.5q0 -18 -2 -37.5t-6 -39.5q-16 -74 -53 -144.5 t-80 -124.5l4 -84l4 -82q0 -39 2 -76.5t4 -70.5l240 10q-2 -8 -7 -19.5l-9 -21.5q-16 -39 -25.5 -65.5t-17.5 -44.5q-12 -29 -34 -36t-81 -9q-12 0 -27.5 -1t-31.5 -1q-2 -27 -8.5 -64t-16.5 -74q-20 -70 -58 -127t-100 -57h-4h-6q-2 2 -4 2h-6l-113 26q-57 13 -114 29 q-141 41 -277.5 98.5t-249.5 143.5l80 176l813 33q0 18 -2 37.5t-2 40.5l-4 85l-4 89q-111 -109 -255.5 -163t-295.5 -56h-20h-19q-39 2 -82 6t-86 14q-115 25 -213 87.5t-115 183.5q-2 14 -3 27.5t-1 25.5zM506 152q20 -14 50 -31t67 -33q39 -18 84 -35.5t90 -32.5 q49 -14 95 -22t87 -8q33 0 59.5 6t44.5 20q14 12 21.5 33t9.5 43q2 10 3 22.5t1 22.5v7v6q-49 0 -101 3t-106 7q-18 2 -36.5 3t-36.5 3q-88 4 -172 4t-160 -18zM1188 803q4 8 7 16l7 19q10 23 17.5 50t13.5 54q4 18 6 36.5t2 35.5q0 18 -3 34.5t-11 30.5q-14 -20 -22.5 -60 t-12.5 -83q-2 -39 -3 -74.5t-1 -58.5z" />
<glyph unicode="H" horiz-adv-x="1492" d="M6 584l156 96l12 -83q6 -42 14 -85q23 -109 54.5 -216.5t74.5 -205.5q4 -10 14.5 -31.5t24.5 -46.5t33 -48t37 -32q4 0 7 -1t7 -1t7.5 1t5.5 3q12 6 22 17.5t19 23.5l4 9l4 8q43 84 59.5 175t24.5 185h-199l57 176h144l4 725l143 82l-76 -807h525q0 92 1 185.5t3 185.5 q0 92 1 185.5t1 185.5l252 160l-17 -226q-8 -113 -14 -225l-16 -225l-17 -226h99l-58 -176h-53l-18 -264l-170 -59l4 323h-539q-2 -12 -3 -23.5t-1 -23.5q-10 -92 -29.5 -183t-66.5 -173q-35 -66 -82 -104t-101 -38q-123 0 -196.5 129.5t-112.5 286.5q-25 106 -35 205 t-10 156z" />
<glyph unicode="I" horiz-adv-x="1294" d="M23 453q0 74 44 135q41 58 117 57h11l167 -4l168 -4l168 -4l168 -4q-88 106 -157.5 230t-69.5 261q2 39 8 78t21 78q27 76 74 109q45 32 103 32h7q27 0 55.5 -6t59.5 -16l-4 -154q-14 -2 -27.5 -3t-28.5 -5q14 -154 38 -305.5t59 -300.5l282 -9q-39 -78 -87 -138 t-148 -70q16 -45 30.5 -92.5t30.5 -92.5l30 -93l29 -93q2 -4 3 -7v-7q0 -12 -9.5 -18.5t-19.5 -6.5h-3h-3q-6 0 -12.5 5t-8.5 15l-58 180l-59 179q-47 -150 -182 -222.5t-291 -72.5h-4h-4q-156 2 -293 73.5t-190 209.5q-8 20 -11 41.5t-3 44.5zM88 412q0 -4 2 -11.5l4 -15.5 q18 -41 103.5 -76t197.5 -47l55 -4q28 -2 54 -2q18 0 35.5 1t35.5 1q96 8 185.5 43t144.5 111q-49 4 -98 7t-98 7q-41 2 -82 5t-82 7l-182.5 11.5t-180.5 7.5h-15q-26 0 -49 -5q-30 -7 -30 -40zM735 1008q0 -91 44 -162q46 -74 102 -141l29 -38l30 -40h4 q-33 145 -55.5 291.5t-38.5 293.5q-41 -23 -69.5 -64.5t-39.5 -86.5q-2 -10 -4 -23q-2 -12 -2 -30z" />
<glyph unicode="J" horiz-adv-x="991" d="M8 -18q0 211 149.5 375.5t340.5 236.5l-36 40l-38 46q-53 63 -98 139q-43 72 -43 147q0 22 2 39q2 15 6 29q25 80 92.5 131.5t142.5 89.5q20 12 42 23l42 20l36 20q17 9 32 19q2 23 13 58t30 71q31 61 76 111.5t96 50.5q12 0 24.5 -3t24.5 -13q16 -10 23.5 -24.5 t7.5 -31.5q0 -23 -12.5 -47t-32.5 -51q-16 -20 -37 -41.5t-43 -40.5q-35 -33 -67.5 -58.5l-47.5 -37.5q-1 -22 0 -45q0 -56 3 -112q5 -79 16 -156v-13q0 -6 2 -12q8 -74 14 -146.5t6 -144.5q31 0 58.5 -1t56.5 -5l29 -4l28 -4l33 -152q-12 -2 -25.5 -5t-25.5 -5 q-18 -4 -37 -7t-39 -7q-20 -6 -42 -10.5t-42 -10.5q-2 -10 -3 -21t-5 -22l21 -21q11 -11 22 -24l42 -44q22 -22 42 -46q2 -2 4 -5t2 -5q2 -4 2 -6v-6q0 -10 -9 -18.5t-22 -8.5q-4 0 -10 2t-12 8q-23 29 -47 55l-50 52l-8 -45l-8 -45q-35 -156 -113.5 -295.5t-240.5 -198.5 q-27 -10 -54.5 -14t-54.5 -4q-104 0 -181 67.5t-77 186.5zM66 -14v-8v-7q0 -23 12 -44t45 -31q16 -6 33.5 -8.5t33.5 -2.5q70 0 133.5 33t114.5 74l9.5 5t9.5 7q86 74 154.5 169t84.5 208l-26 29q-98 -35 -189.5 -82t-181.5 -101q-18 -10 -44 -26.5t-50 -34.5 q-37 -29 -71 -60.5t-52 -64.5q-2 -8 -5 -15.5t-5 -13.5t-3 -12t-3 -14zM418 885q0 -18 5 -37t13 -37q20 -39 48 -75l57 -70q2 -2 5 -6.5t7 -8.5q6 -8 12 -15l13 -15q35 10 69.5 17t69.5 9q0 74 -6 146.5t-15 146.5v8q0 4 -2 8l-12 139q-6 69 -8 138q-6 -6 -13.5 -11 t-13.5 -12q-86 -74 -157.5 -156.5t-71.5 -168.5zM750 1384l35 25q17 12 34 27q4 4 18 16l29 29q6 6 10.5 11t10.5 9q12 14 20 27.5t8 23.5q0 4 -1 7.5t-5 5.5q-4 4 -9 5t-9 1q-6 0 -13.5 -3t-13.5 -7q-18 -12 -35.5 -36t-33.5 -50q-16 -29 -28.5 -55t-16.5 -36z" />
<glyph unicode="K" horiz-adv-x="1529" d="M4 647q18 4 36.5 7t37.5 8q35 8 72 15l71 13q43 -133 100.5 -257t124.5 -245l15.5 -24t13.5 -25q2 -2 5 -2t7 4q2 0 5 2l4 4q4 2 5 4.5t1 4.5q20 106 29.5 210.5t13.5 208.5q-16 8 -33.5 14.5t-34.5 10.5q2 12 3 21.5t3 15.5q2 16 8.5 18t24.5 0h13h18q2 49 3 99.5 t1 99.5t1 98t3 99l-21 -51l-22 -52q-10 -27 -21.5 -52.5t-23.5 -49.5q-4 -10 -11 -14.5t-16 -4.5q-10 0 -19 8.5t-9 20.5q0 2 1 3t1 3t1 3t1 3l227 537l197 55q-12 -98 -22.5 -196.5t-18.5 -196.5q-8 -88 -18 -175l-19 -175q143 76 259 204t218 267l77 106l75 105l90 -21 q-129 -227 -279.5 -428.5t-404.5 -304.5q111 -43 241.5 -151.5t264.5 -237.5l36 -34q18 -17 35 -36q6 -6 13.5 -12t13.5 -12l33 -32l34 -32l33 -31l33 -32l-40 -51l-40 -52l-40 -50l-38 -52l-74 82l-75 82l-242 251q-123 124 -260 224q-23 -117 -59.5 -208t-139.5 -165 q-33 -23 -63.5 -34t-59.5 -11q-100 0 -173.5 103.5t-127.5 228.5q-31 76 -55.5 146.5t-42.5 117.5z" />
<glyph unicode="L" horiz-adv-x="1644" d="M14 348q0 121 90 204q80 74 193 74q14 0 29 -1q33 -4 64.5 -13.5t62.5 -21.5q14 -4 27.5 -9.5t27.5 -9.5q49 -14 98 -32l99 -37q10 47 14 92t4 88q-82 49 -117 138t-51 188l-8 42q-4 22 -6 42q-4 25 -9.5 49t-9.5 47v3v3q-2 2 -2 3v1q2 14 10.5 20.5t18.5 6.5t18 -6.5 t11 -18.5q0 -4 1 -8t3 -10q16 -70 44.5 -137.5t88.5 -116.5q0 47 5 100t15 107q27 131 95.5 245.5t199.5 145.5q16 4 32.5 6t31.5 2q90 -2 138 -68.5t64 -160.5q4 -29 7.5 -61t3.5 -66q0 -29 -2 -57.5t-7 -57.5q-20 -156 -107 -288t-251 -140q-13 -1 -26 -1q-32 0 -61 4 q-40 5 -73 17q-2 -43 -7 -87t-13 -89l149 -66l148 -69l100 -48l98 -48q2 -2 5.5 -3t7.5 -3q49 -25 105.5 -46.5t115.5 -27.5q12 -2 24.5 -3t24.5 -1h12q6 0 13 2q4 0 10 1t12 1q8 0 16.5 1t16.5 3t16 3t17 3q-8 -14 -18 -27l-19 -28q-43 -63 -107.5 -94t-136.5 -31 q-39 0 -77 8t-72 25l-268 121l-263 112q-45 -94 -117.5 -159.5t-177.5 -69.5h-19h-18q-109 4 -204 61.5t-127 165.5q-6 23 -9.5 44.5t-3.5 41.5zM100 418q2 -109 92.5 -170.5t194.5 -67.5h10h9q70 0 131 26.5t100 82.5l-234 95l-231 95q-2 2 -4 2t-4 2q-4 0 -8 1t-9 1 q-25 -2 -36 -22t-11 -45zM772 891q31 -14 65.5 -23.5t71.5 -11.5q6 -2 15 -2h14q102 0 189 55.5t96 167.5v7q0 3 2 8v6v6q0 90 -54.5 159.5t-150.5 69.5h-5q-115 0 -167 -87q-53 -89 -68 -193q-6 -43 -7 -85t-1 -77z" />
<glyph unicode="M" horiz-adv-x="1658" d="M0 437q0 77 4 126l213 92q-2 -45 -3 -91v-30q0 -30 1 -61q2 -84 13.5 -165t37.5 -158l9 -23l12 -27q12 -25 30.5 -45t40.5 -20q10 0 20.5 6t20.5 18q63 80 106.5 236t78.5 326l12 65l12 64q2 14 5 27.5t5 27.5l13 68l12 69q18 90 48 178t83 162q39 53 89 96t114 66 q10 4 21.5 6t19.5 2q43 0 59.5 -38t20.5 -83q2 -20 2 -41v-37v-4q0 -170 -2 -340l-4 -340q-2 -57 -3 -113.5t-1 -113.5l117 267l118 268q6 14 28.5 31.5t53.5 35.5l14 9q8 5 17 10l54 31l42 26q4 -10 10 -22l12 -21q0 -4 2.5 -7t4.5 -7q8 -16 14 -33t6 -29q2 -57 2 -116 v-117q0 -104 1 -209t7 -209q0 -12 5.5 -26.5t11.5 -26.5q0 -4 2 -9l4 -8q4 -10 8 -19t8 -20l-162 -112q-2 2 -5 4t-5 4q-31 23 -55.5 49.5t-26.5 69.5q-8 158 -14 317l-12 320l-291 -662q-14 -14 -36 -25l-42 -20q-8 -2 -15 -5t-14 -5q-4 -2 -9 -4t-9 -4q-35 90 -57 181 q-21 84 -21 171v16l4 196l4 193l4 194l4 195v4v1q0 20 -7 35.5t-19 13.5q-4 0 -10.5 -4t-14.5 -15q-49 -66 -77.5 -147.5t-45.5 -165.5l-12 -73l-12 -70q-2 -12 -5 -26.5t-5 -27.5q-14 -68 -28.5 -152.5t-37.5 -174.5q-27 -115 -66.5 -223.5t-101.5 -176.5q-39 -39 -89 -59 q-42 -17 -89 -17q-9 0 -18 1q-115 10 -165.5 114.5t-64.5 227.5q-6 81 -6 158z" />
<glyph unicode="N" horiz-adv-x="1320" d="M6 283l137 141l13 -34l12 -34q47 -123 110.5 -237.5t170.5 -192.5q57 121 78.5 251t21.5 263q0 74 -5 150t-14 151l-8 75l-8 77l-19.5 164t-13.5 162l148 143q4 -4 9 -8t9 -8q18 -16 33.5 -35t26.5 -45l85 -230l82 -227l83 -229l85 -230q4 145 7.5 291.5t7.5 292.5v3v3 q4 98 38 180q33 80 108 80h3q23 0 48.5 -9t56.5 -28l-76 -211l-33 22q-14 9 -26 9q-6 0 -11.5 -2t-9.5 -6t-9 -10.5t-11 -16.5q-6 -12 -11.5 -25.5t-9.5 -27.5q0 -6 -1 -13.5t-1 -13.5l-4 -167l-4 -166l-4 -165l-4 -167l34 -94l-143 -111l-422 938q2 -12 3 -23.5t1 -21.5 q14 -115 24.5 -229.5t10.5 -231.5q0 -131 -21.5 -262t-76.5 -256q-31 -72 -70 -104.5t-84 -32.5q-23 0 -47 10t-49 31q-16 12 -32.5 29.5t-33.5 39.5q-49 66 -88 142.5t-65 156.5l-17 49q-8 25 -14 50z" />
<glyph unicode="O" horiz-adv-x="1497" d="M14 659q16 236 184.5 332t366.5 107q26 1 52 1h26q39 -1 76 -3q23 -2 47.5 -6.5t48.5 -10.5q45 -12 89 -29.5t81 -39.5q6 -2 9 -7.5t5 -9.5v-4v-4q0 -12 -8 -21.5t-20 -7.5h-4h-4q-2 0 -4.5 1t-4.5 4q-39 23 -85 41t-93 28l-30 4l-31 4q-39 3 -78 3q-68 0 -134 -9 q-105 -14 -198 -78q-63 -45 -93 -102t-30 -117q0 -8 1 -18t1 -19q10 -74 55.5 -144.5t108.5 -125.5q106 -90 238.5 -133t271.5 -47h22h23q141 2 262 58t140 218q4 20 4 40v38q0 133 -59.5 243.5t-174.5 190.5q-94 66 -194.5 90.5t-204.5 24.5q-72 0 -145.5 -9t-149.5 -24 l-27 47q84 92 204 137q114 42 239 42q6 0 12 -1h20q10 0 21 -2q215 -10 399.5 -130.5t220.5 -333.5q4 -27 6.5 -52.5t2.5 -50.5q0 -262 -192.5 -462.5t-448.5 -243.5q-29 -4 -59.5 -7.5t-61.5 -3.5q-27 0 -53.5 2t-53.5 7q-231 31 -421 186q-176 145 -176 372q0 17 1 35z " />
<glyph unicode="P" horiz-adv-x="1746" d="M6 868q0 70 50 125.5t139 85.5q98 33 201.5 55.5t207.5 34.5l80 7.5t78 5.5q6 66 11 129t7 127q2 16 12 23q7 6 15 6q2 0 4 -1q10 0 19.5 -7t7.5 -23q-2 -63 -7.5 -126t-9.5 -124q61 2 124 2t124 -4q125 -6 249 -26.5t241 -57.5q102 -31 146 -92q42 -59 42 -129 q0 -24 -3 -44q-3 -19 -7 -38q-18 -70 -64.5 -135.5t-109.5 -110.5q-121 -86 -263.5 -113.5t-287.5 -31.5q-31 -2 -61.5 -3.5t-61.5 -1.5q-23 0 -45.5 -1t-44.5 -1v-128v-128v-127v-127q0 -16 -9 -24q-7 -7 -17 -7q-2 0 -5 1h-3h-1q-8 2 -15.5 9t-7.5 21v33q0 14 2 27v47 q0 18 -4 35q-6 16 -19 35.5t-38 52.5q-4 6 -8 11t-8 9t-8.5 9.5t-8.5 9.5q-4 -14 -10 -42t-16 -61q-10 -41 -26.5 -74.5t-37.5 -33.5h-1q-3 2 -4 2q-9 2 -14 11t-5 20q0 20 9 45.5t21 54.5q0 4 2 8l4 8l24 60q11 29 11 45q0 4 -1 6t-3 4q-55 57 -115 111l-118 106l-4 4l-5 4 l-142 128q-71 65 -136 136q-39 43 -57.5 86t-18.5 82zM68 877q0 -4 3 -8.5t7 -8.5q2 0 3 -1l1 -1q45 -33 92 -61.5l96 -55.5l9.5 -5l9.5 -5q104 -59 202.5 -126.5t163.5 -170.5q20 92 36 184l30 185l12 92q6 47 10 92q-31 0 -127 -4t-206 -16q-121 -12 -225.5 -33 t-116.5 -53v-2v-2zM698 356q8 -16 15.5 -35.5t15.5 -37.5q2 -8 6 -17.5t6 -19.5v327q-8 -55 -19.5 -109.5zM750 612q43 2 86 3t86 3q25 0 48 1.5t46 1.5q160 4 314.5 30.5t287.5 120.5q2 2 5 4t5 4l11.5 7.5t9.5 7.5q6 6 10 11t4 11q0 4 -5 9t-16 10q-154 61 -318.5 96 t-332.5 47q-47 4 -95 6t-95 2q-10 -94 -22.5 -187.5t-28.5 -187.5z" />
<glyph unicode="Q" horiz-adv-x="1505" d="M12 678q16 223 188.5 328.5t377.5 109.5h32h31q90 -4 177 -23.5t163 -66.5q6 -2 9 -7t5 -9v-4v-5q0 -12 -8 -21t-20 -7h-4h-5q-2 0 -4 1t-4 3q-39 23 -85 41t-93 29l-30 4l-31 4q-14 2 -30 2h-32h-19q-81 0 -160 -16q-89 -17 -167 -70q-66 -45 -95 -103q-28 -54 -28 -109 q0 -15 1 -25q1 -9 1 -17q10 -74 53.5 -145.5t108.5 -125.5q88 -74 205 -119.5t239 -58.5q25 -2 48.5 -3t46.5 -1q39 0 74.5 3t70.5 9l-174 156q35 29 73 47.5t77 18.5q23 0 47 -8.5t49 -26.5l32 -24q15 -11 31 -21l32 -24l32 -23q43 45 61 109q17 58 17 121v13 q0 55 -10.5 108.5t-26.5 96.5q-51 133 -176 220t-265 114l-24 4l-25 4q-25 4 -49 5t-51 -1q-66 0 -140.5 -7t-160.5 -23l-27 47q84 92 205 136t252 44h17h18q215 -12 401.5 -133t222.5 -336l4 -25q2 -12 3 -24q2 -14 2 -27v-24q0 -127 -50.5 -247t-140.5 -216l197 -144 q-27 -39 -56.5 -66.5t-81.5 -37.5q-2 0 -6 -1t-6 -1q-6 0 -12 -1t-12 -1q-45 0 -79 22.5t-67 53.5l-9 9l-9 9q-6 6 -12.5 11t-12.5 12q-90 -57 -192.5 -89t-210.5 -32q-33 0 -66 3t-65 7q-223 39 -406 192q-167 141 -167 362q0 20 1 40z" />
<glyph unicode="R" horiz-adv-x="1634" d="M10 821q-2 24 -1 47q0 224 165 330q182 117 406 154q84 14 164.5 20t150.5 6q18 1 39 1q41 0 91 -3q75 -4 153 -16q145 -23 268 -92.5t123 -222.5q0 -217 -149 -322q-151 -106 -333 -160q-4 0 -8 -1t-8 -3l557 -745l-182 -84q-104 115 -195 236l-176 247l-17 24.5 l-18 24.5l-50 74l-52 74l-41 -353q-57 59 -115.5 112.5t-126.5 98.5l-83 -113l-83 -114q-6 -8 -12 -11t-12 -3q-12 0 -21.5 8t-7.5 20q0 4 2 9.5t4 9.5l164 225q-33 20 -68 39l-73 39l-35 16l-33 17q-139 70 -257 159.5t-130 251.5zM74 909q0 -37 16 -71.5t43 -59.5 q35 -31 75 -53.5t83 -42.5l33 -16l32 -17l30 -16l30 -17q8 -4 15 -8t15 -8l135 -75q67 -38 128 -85l94 129l-35 21l-37 20l-22 13l-25 12l104 131q33 -4 67 -7t67 -7q4 45 9 89t11 89q4 43 9 87t12 89l57 -6l-41 -350q22 -1 46.5 -1t51.5 1q55 2 111 10q88 12 169 45t120 98 q8 12 11 24.5t3 24.5q-2 94 -210 140q-199 43 -444 43h-22h-21h-24q-205 -4 -388 -36t-261 -89q-25 -18 -36 -45t-11 -56zM754 406q31 -25 59.5 -51.5t54.5 -57.5l21 182q-4 4 -7 8.5t-8 8.5q-2 2 -3 4l-3 6q-6 6 -11 12t-11 12z" />
<glyph unicode="S" horiz-adv-x="1634" d="M4 581v5q0 12 8 20t19 6q4 0 7 -1t7 -1q2 -2 6 -4t6 -6q125 -143 284 -231t349 -117l32 -5q19 -3 44 -5q55 -8 129 -13.5t152 -5.5h11h11q156 4 284 43q130 40 130 153q0 68 -57 103q-58 37 -130 58l-64 15l-58 13q-57 14 -117 25l-119 20q-74 12 -147.5 26.5 t-145.5 35.5l-41 12q-20 6 -43 16q-57 20 -107.5 55.5t-70.5 88.5q-2 8 -5 15t-3 16q-2 6 -3 13t-1 15q0 74 60.5 142.5t131.5 119.5q41 27 78 47.5t66 32.5q8 4 17 7t19 8q55 20 123 37.5t140 25.5q23 4 46 5t46 1q100 0 182 -36t115 -126l95 76l93 74q2 2 5 4t5 2q2 2 5 2 h6q12 -2 21 -10q8 -7 8 -16.5t-4 -16.5q-3 -6 -9 -10l-112 -89l-113 -89l-114 -89l-112 -90q-2 -2 -5 -4t-5 -2h-5h-5q-12 0 -20.5 9.5t-8.5 19.5q0 6 3 12t10 11l94 73l92 72q-45 29 -101.5 40t-115.5 11q-31 0 -62.5 -3t-62.5 -7q-76 -10 -147.5 -30.5t-133.5 -43.5 l-45 -16q-23 -8 -41 -17q-4 -2 -29.5 -13t-54.5 -28q-14 -6 -26.5 -13t-22.5 -15q-16 -12 -26.5 -22.5t-10.5 -20.5q0 -2 1 -3q1 -3 2 -4l1 -1q23 -25 125.5 -46.5t237.5 -42.5l56 -8l57 -8q55 -8 139 -18.5t172 -26.5q123 -25 230.5 -68t142.5 -120q8 -18 11 -37t3 -37 q0 -27 -6 -53.5t-19 -53.5q-29 -68 -84 -133t-114 -118q-39 -31 -76 -56.5t-68 -40.5q-70 -33 -143.5 -47t-149.5 -14q-25 0 -49 1t-49 5q-184 20 -358 106t-305 197l-32 29l-30 28q-43 43 -74.5 85t-52.5 81q0 2 -1 3t-1 3q-2 5 -2 8z" />
<glyph unicode="T" horiz-adv-x="1454" d="M8 1067q0 23 2 43t6 39q31 147 144.5 197.5t242.5 50.5h5h4h20h21q33 -2 63.5 -5t58.5 -8l33 116l33 114q4 10 12.5 15t16.5 5q10 0 19 -7t9 -19v-3v-1q0 -2 -1 -3.5t-1 -3.5l-31 -112q-15 -55 -32 -109q84 -12 169 -26l169 -29l237 -38q119 -19 238 -36l-70 -176 l-150 16l-153 17l-16 -254q-8 -127 -15 -254l-16 -254l-16 -254q-2 -14 -11.5 -21.5t-19.5 -7.5h-3q-11 2 -19.5 10.5t-6.5 22.5l8 124l9 124l8 124l8 124q-6 -31 -14 -61l-17 -60q-33 -123 -79 -240.5t-115 -220.5q-14 -16 -28.5 -24.5t-31.5 -8.5q-12 0 -24 5.5l-25 11.5 q-25 14 -49.5 41.5t-46.5 56.5q-27 37 -46.5 69.5t-23.5 43.5q-27 59 -44 119.5t-29 123.5l174 162q2 -4 3 -9t1 -9q27 -115 65.5 -220.5t137.5 -183.5q63 133 103 279.5t67 296.5q16 88 29 176l26 174l-111 12l-110 13q-57 6 -112.5 11t-111.5 11q-4 -12 -7 -25.5t-7 -25.5 l-17 -68q-9 -35 -20 -69q-18 -72 -43.5 -141.5t-62.5 -127.5q-27 -43 -63 -61t-72 -18q-6 0 -13.5 1t-13.5 1q-41 8 -80 35.5t-68 70.5q-31 45 -54 108.5t-34 129.5q-4 25 -6 50t-2 50zM76 1108q0 -20 5 -45t11 -49l17 -42q8 -22 16 -40q12 -29 23.5 -50.5t17.5 -31.5 t14 -22l17 -23q18 -23 40.5 -44.5t45.5 -33.5q10 -4 20 -7t21 -3q18 0 35.5 15.5t29.5 47.5q25 63 45 127l41 127q8 31 18.5 63.5t18.5 63.5q-88 10 -175 17.5t-177 13.5q-7 1 -13 1q-37 0 -53 -22q-18 -24 -18 -63z" />
<glyph unicode="U" horiz-adv-x="1417" d="M10 1137l106 56l103 54q18 -37 37.5 -71.5t44.5 -69.5l30 40q17 24 38 48q33 37 73.5 70.5t83.5 46.5q8 2 17.5 3t17.5 1h11q5 0 12 -2q6 -2 11 -3t11 -5q29 -14 39 -36t10 -48v-13q0 -6 -2 -10q-2 -18 -8 -35.5t-14 -32.5q-45 -90 -126 -156q-74 -61 -173 -61h-19 q-10 -51 -17 -108t-7 -117q0 -80 14 -157.5t47 -145.5q25 -49 62 -84t92 -45q10 -2 20.5 -3t18.5 -1q72 0 121 55t79 121l11.5 23.5t9.5 21.5q-2 38 -3 75q0 89 14 177q19 125 44 250v4v4l12 65l13 62l260 147l-18 -96q-9 -49 -19 -96l-25 -124q-12 -62 -20 -124 q-8 -57 -13 -112.5t-5 -110.5q0 -33 2 -65.5t6 -65.5v-3v-3q12 -82 50 -152q37 -68 107 -67h5q18 0 38.5 5t42.5 15q25 10 39.5 24.5t28.5 30.5l17 26q9 13 22 28q6 6 12 9t12 3q12 -2 20.5 -10.5t8.5 -20.5q0 -4 -2 -9t-6 -9q-10 -10 -19 -23l-18 -22l-16 -22l-17 -21 q-55 -72 -115.5 -131.5t-142.5 -59.5q-31 0 -64.5 10.5t-70.5 34.5q-72 47 -111.5 118t-56.5 151l-16 -29l-17 -31q-55 -92 -139 -169t-190 -77q-25 0 -49.5 5.5t-51.5 15.5q-111 45 -164 161.5t-61 247.5q-2 14 -2 30v30q0 76 12.5 144.5t32.5 121.5l28 55q17 35 42 78 q-37 23 -70 55.5t-63 67.5l-20 23q-9 10 -17 20l-12 11q-5 6 -9 12zM356 1049q23 -16 42.5 -23.5t35.5 -7.5q37 2 63.5 29.5t39.5 62.5q6 12 8 25.5t2 23.5q0 16 -4 27.5t-15 13.5q-6 2 -12 3t-12 1q-33 0 -61.5 -27.5t-51.5 -60.5q-10 -18 -19 -37z" />
<glyph unicode="V" horiz-adv-x="1282" d="M12 985v24v23v5v7q2 113 40 217.5t147 161.5q23 10 48 16.5t52 6.5q14 0 30.5 -2t30.5 -6q70 -14 132.5 -54.5t87.5 -95.5q29 -70 41 -144.5t12 -152.5q0 -61 -6 -124.5t-17 -129.5l-12 -74l-12 -75l-25 -158q-12 -78 -18 -154v-21q0 -11 2 -24q2 -25 12 -46t33 -29 q16 -6 32.5 -9.5t34.5 -3.5q12 0 23.5 1t24.5 3q41 8 80.5 25.5t64.5 40.5q90 80 151.5 196.5t71.5 241.5q2 10 2 22v21q0 59 -14 116.5t-47 109.5l-101 -33l-122 160l509 155l-12 -196l-213 -68q33 -45 59.5 -87t45.5 -83q25 -55 38 -111.5t13 -117.5q0 -43 -6 -90.5 t-21 -100.5q-29 -119 -119 -204t-211 -107l-33 -4q-17 -2 -36 -2q-10 0 -21.5 1t-23.5 1q-76 8 -147.5 43t-123.5 86q-94 94 -127.5 206.5t-33.5 235.5q0 55 5 112.5t13 114.5l12 77l13 75l20 122q10 60 17 118v4v6q2 10 2 26.5t-2 34.5q0 25 -6.5 46.5t-20.5 29.5 q-111 -33 -152 -125t-51 -194q-4 -35 -5 -70t-1 -68l-152 -22l-4 46z" />
<glyph unicode="W" horiz-adv-x="1818" d="M4 825q47 176 141.5 327t292.5 185q12 2 23.5 3t21.5 1q45 0 84 -17t70 -56q35 -39 49 -88q13 -43 13 -90q0 -7 -1 -13q0 -49 -10 -101t-29 -106q-23 -66 -52 -129t-62 -123l-67 -118l-54 -94q-4 -8 -18.5 -33l-32.5 -54l-4 -8l-4 -8q-16 -29 -29.5 -56.5t-13.5 -39.5v-3 q0 -1 2 -3q27 -27 56.5 -39t61.5 -12q25 0 51.5 6t53.5 18q55 23 109.5 62.5t99.5 85.5q31 29 55.5 58.5t40.5 51.5q-2 18 -5 59t-3 95q0 41 2 87t8 93q12 131 54 240q41 107 127 106h3h8h5q25 -2 46 -31.5t29 -89.5q6 -39 9.5 -76.5t3.5 -76.5q0 -152 -48.5 -298.5 t-140.5 -275.5q23 -61 61 -89t99 -28q14 0 30 3l31 4q193 29 291 173q96 141 97 315q0 48 -5.5 89t-15.5 82q-6 18 -30.5 27.5t-53.5 15.5q-29 8 -54.5 18.5t-29.5 30.5l-12 69l-12 68l434 41l26 -153l-211 -99q29 -57 45.5 -119.5t20.5 -123.5q2 -14 2 -27v-24 q0 -113 -39 -220.5t-117 -193.5q-51 -55 -111.5 -88t-123.5 -39q-10 -2 -22 -2h-23q-98 0 -184.5 55t-133.5 164q-63 -70 -144 -117t-183 -61q-4 0 -9.5 -1t-9.5 -1q-10 0 -19 -1t-18 -1q-158 2 -233.5 114.5t-75.5 253.5q0 66 15.5 130.5t48.5 119.5q16 27 63 86l102 131 q8 12 18 25l17 22q55 74 95 140.5t40 105.5q0 8 -2 14.5t-6 10.5q-2 4 -8 5t-12 1h-6q-4 0 -7 -2q-4 0 -8 -1t-6 -1q-4 -2 -8 -3t-6 -1q-166 -61 -252 -192.5t-145 -287.5zM898 597q1 -44 3 -87q10 18 26.5 52t33.5 77q10 25 19 50.5t17 51.5q16 51 27.5 98.5t11.5 84.5 q0 29 -8 47t-27 20h-1h-2h-1h-3q-1 0 -3 -2q-10 -4 -20 -17.5t-19 -29.5q-8 -12 -12 -24l-6 -19q-14 -49 -22.5 -103.5t-12.5 -109.5q-1 -30 -1 -60v-29z" />
<glyph unicode="X" horiz-adv-x="1411" d="M4 22q2 5 4 9l436 557q-14 74 -18 149.5t-6 151.5q0 16 -1 33.5t-1 35.5q0 57 -2 116t-6 116q-2 12 -4.5 31.5t-8.5 38.5q-6 27 -17 51t-30 32q-84 -27 -112.5 -95t-28.5 -148v-22q0 -11 2 -23q2 -33 6 -65t8 -60l4 -22l4 -21l-149 -23q-16 53 -30.5 114.5t-18.5 125.5 v14v17q0 78 28.5 148.5t102.5 113.5q23 12 47.5 17t50.5 5q18 0 38 -2t38 -8q72 -16 135.5 -56t91.5 -87q51 -82 78 -176.5t41 -194.5l389 496l223 -222l-145 -176l-182 172l-275 -352q6 -66 9 -133l4 -135q0 -12 1 -24.5t1 -22.5q2 -61 5 -122t11 -120q2 -8 3 -17.5 t5 -19.5q8 -29 24.5 -54.5t43.5 -35.5q23 -8 43 -12t41 -4q113 2 189.5 100t84.5 215v15v14q0 51 -16.5 98t-50.5 86q-2 4 -4.5 6t-4.5 6q0 2 -1 5.5t-1 5.5q2 12 11.5 20t21.5 8l12 -4q6 -2 11 -6l36 -29l33 -28q68 -57 115 -123t51 -174q0 -8 1 -16q0 -138 -103 -220 q-109 -86 -244 -86h-15q-7 0 -14 2q-8 0 -15 1t-15 1q-203 33 -329 173.5t-177 332.5l-103 -130l-102 -130l-102 -130l-103 -128q-6 -6 -12 -9t-12 -3q-10 0 -20 7q-8 6 -7 15q0 8 2 14z" />
<glyph unicode="Y" horiz-adv-x="1247" d="M8 1018q0 98 35 187t133 136q18 10 41 14.5t47 4.5q12 0 25.5 -1t25.5 -3q63 -10 118.5 -44t78.5 -83q27 -57 37 -117.5t10 -124.5q0 -53 -6 -107.5t-16 -109.5l-9 -52l-8 -52l-23 -134q-11 -66 -16 -126q-1 -8 0 -16q0 -45 22 -65q24 -22 62 -22h6q14 0 30 2l30 4 q121 23 187.5 115t101.5 199q10 29 14 85t6 123q0 10 1 19.5t1 19.5q0 14 1 27.5t1 28.5q6 125 26.5 228t80.5 103h3h3q2 -2 3 -2h3q37 -8 52 -43.5t15 -89.5q0 -41 -8 -89t-20 -97l-22 -78q-11 -39 -23 -74q-20 -55 -38 -97t-28 -60l4 -128l4 -128q2 -66 5.5 -129.5 t5.5 -128.5l237 10l-73 -184q-39 -4 -80 -7.5t-82 -5.5q-2 -27 -8.5 -63.5t-16.5 -73.5q-18 -72 -55 -129t-98 -57h-11q-6 0 -12 2l-114 25q-58 13 -115 30q-141 39 -277.5 97.5t-247.5 146.5l80 172l813 35q-2 47 -3 92t-3 90q-51 -45 -115.5 -66.5t-132.5 -21.5h-11h-9 q-68 4 -132.5 29.5t-113.5 72.5q-82 78 -114 171q-30 88 -29 182v12q0 47 5 94t11 96q4 31 10 61.5t11 61.5l16 95q8 48 14 94v3v3q2 8 2 21v28q-2 18 -6 34.5t-14 24.5q-100 -29 -135 -109.5t-41 -170.5q-2 -23 -3 -45.5t-1 -44.5l-140 -19q-2 29 -5 58.5t-3 60.5zM342 -76 q20 -14 50 -29l67 -34l83 -34q44 -17 89 -32q47 -14 94 -23.5t88 -9.5q35 0 61.5 6.5t45.5 22.5q16 12 22 33.5t10 44.5q0 10 1 21.5t1 21.5v5v7v-2q-51 2 -104 5t-109 7q-14 0 -29.5 1.5t-29.5 3.5q-77 5 -151 5h-25q-86 -2 -164 -20zM991 780l8 22l19 48l15 45q7 20 9 23 q2 6 6 16l7 24q4 14 7 31t5 33q4 14 5 29.5t1 27.5q0 23 -5 38.5t-17 17.5h-3h-1q-25 0 -36.5 -55.5t-15.5 -121.5q-4 -53 -4 -100v-67v-8v-3z" />
<glyph unicode="Z" horiz-adv-x="1626" d="M10 94v5v7q0 39 7.5 76t21.5 68q39 84 101 117q59 31 128 30h8q35 0 72 -6t74 -14q41 -12 82 -27l80 -28q27 -10 52.5 -21.5t47.5 -19.5l180 219h-188l90 96h180l318 383q-76 -6 -153 -8q-38 -1 -76.5 -1t-76.5 1q-78 2 -153.5 9t-153.5 19q-6 -18 -24.5 -87.5 t-46.5 -149.5q-31 -84 -74 -155.5t-96 -84.5q-6 -2 -12.5 -3t-10.5 -1q-6 -2 -12 -2h-13q-100 2 -162.5 95.5t-86.5 205.5q-10 39 -14.5 77t-4.5 73q0 23 3 43t5 37q25 119 124.5 184t213.5 74h16h13q23 0 46.5 -3.5t43.5 -7.5q35 -8 53 -11l31 -5q4 0 7 -1t5 -1t4.5 -1 t4.5 -1q0 2 1 5t1 5l10 45q6 27 22 84q0 2 1 3q3 7 7.5 12.5t12.5 5.5h8q4 0 8 -2q10 -2 14.5 -12.5t4.5 -24.5q0 -12 -3 -26.5t-8 -29.5q-2 -6 -4 -13t-4 -13q-4 -16 -9 -29.5t-7 -21.5l95 -19.5t97 -17.5q143 -25 287.5 -41.5t290.5 -26.5l-467 -561h168l-90 -96h-160 l-201 -242q127 -53 251 -113l247 -118q47 -23 89 -38.5t81 -25.5q29 -6 58.5 -10t60.5 -4q25 0 51.5 3t54.5 7v-2q-55 -82 -123.5 -132t-152.5 -50q-35 0 -73 9t-79 28q-158 74 -310 138l-304 128q-12 -12 -25 -27l-24 -28q-68 -68 -155 -126q-79 -53 -162 -53h-17 q-100 8 -146.5 84t-50.5 166zM86 150q2 -14 6 -29q12 -43 44 -82t85 -49q6 -2 13.5 -3t15.5 -1q8 -2 15 -2h14h9h9q55 4 108.5 23.5t92.5 53.5q10 10 19 20.5l18 20.5l-185 77l-186 77q-8 4 -14.5 5t-12.5 1q-27 0 -41 -24q-13 -22 -12 -51q0 -21 2 -37zM162 1004 q0 -33 9 -73t26 -81q25 -66 63.5 -126t79.5 -93q16 -12 32.5 -18.5t30.5 -6.5t26.5 6t25.5 21q37 59 72.5 161.5t66.5 215.5l-159 36q-83 19 -175 44q-8 4 -16 4h-17q-35 0 -50 -24.5t-15 -65.5z" />
<glyph unicode="[" />
<glyph unicode="\" horiz-adv-x="305" d="M16 1311h74l246 -1577h-74z" />
<glyph unicode="]" />
<glyph unicode="^" />
<glyph unicode="_" horiz-adv-x="931" d="M-4 -4h952v-74h-952v74z" />
<glyph unicode="`" horiz-adv-x="565" d="M84 1591q0 29 19.5 52.5t50.5 23.5q10 0 19 -3t20 -9l74 -45l77 -45l77 -45l75 -45l-21 -50l-169 50l-171 49q-27 8 -39 27.5t-12 39.5z" />
<glyph unicode="a" horiz-adv-x="755" d="M6 297q0 16 1 31.5t3 29.5q2 25 9.5 59t19.5 68q25 63 64.5 117.5t101.5 54.5h7h5q10 0 17.5 -3t15.5 -7q4 -2 8 -5t8 -5v22h262v-501l1 1l1 1v2l61 66l60 67l59 66l60 67q4 6 10 9t13 1q12 0 20 -8t8 -20v-6q0 -3 -2 -5q0 -2 -2 -5t-4 -5l-120 -132l-120 -134 q-27 -31 -57.5 -50.5t-71.5 -19.5q-55 0 -95 35t-62 82q-2 -4 -4 -9t-7 -9q-20 -37 -55 -69q-33 -30 -72 -30h-6h-4h-3q-58 6 -94 75t-36 169zM162 446q0 -6 2 -12q4 -61 24 -113q20 -50 53 -51h3h4q2 0 4 2q4 2 9 5.5t7 7.5v258l-4 8q-2 4 -4 10q-6 10 -15 20.5t-22 10.5 q-33 0 -47 -40t-14 -93v-13z" />
<glyph unicode="b" horiz-adv-x="602" d="M10 532q0 45 3 93.5t7 97.5q12 135 42 254t69 207l17 35q9 18 22 38q29 49 73 90.5t97 41.5h10q6 0 12 -3q37 -8 57.5 -60t20.5 -132q0 -33 -4 -71t-12 -79q-4 -25 -15.5 -66.5t-29.5 -84.5q-27 -68 -68 -124t-94 -56q0 -20 1 -42t3 -42t3 -42t3 -42q35 43 82 78.5 t105 35.5q39 0 68.5 -20.5t47.5 -54.5q14 -27 20.5 -58.5t6.5 -66.5q0 -23 -3 -46.5t-7 -45.5q-27 -117 -107 -215q-78 -96 -180 -97h-4h-4h-4h-4h-4v-2q-125 12 -177.5 146t-52.5 333zM217 770q33 0 60.5 46t50.5 102q16 45 26 83l15 56q10 47 14 88t4 74q-2 37 -6 63.5 t-14 38.5q-4 -2 -8 -2h-7q-63 -4 -100 -160q-35 -147 -35 -365v-24zM244 420q4 -25 7 -48.5t7 -47.5q6 -25 10 -48.5t11 -48.5q16 -16 33.5 -24t35.5 -8q23 2 42.5 13t35.5 32q18 25 26.5 55.5t8.5 62.5v9v10q-2 27 -11.5 51.5t-23.5 44.5q-10 14 -21.5 23.5t-23.5 13.5 q-8 4 -15.5 5t-15.5 1q-35 0 -64.5 -27.5t-41.5 -68.5z" />
<glyph unicode="c" horiz-adv-x="591" d="M8 408q2 29 8.5 59.5t16.5 62.5q29 86 89 158t150 72q43 0 75 -19.5t61 -50.5l-58 -174q-4 4 -7 8t-7 11q-27 33 -57.5 62.5t-71.5 43.5q-14 -31 -23.5 -64.5t-9.5 -68.5q0 -51 18.5 -100.5t55.5 -85.5q27 -27 58.5 -40.5t64.5 -13.5q31 0 60.5 12.5t55.5 36.5l16 16 l15 15q27 29 46.5 57.5l33.5 47.5l7 7q3 3 7 3q2 2 6 2h7q10 0 18 -8t8 -21q0 -4 -2 -9t-6 -9q-41 -55 -86 -109.5t-94 -103.5l-22 -22q-11 -11 -25 -23q-43 -39 -95.5 -72t-105.5 -35h-8h-8q-94 8 -147 110q-45 88 -45 206q0 20 1 39z" />
<glyph unicode="d" horiz-adv-x="741" d="M0 301v28q0 13 2 25q6 68 31.5 132.5t60.5 109.5q29 39 71 67.5t89 28.5h11q5 0 11 -2q6 0 11.5 -2l11.5 -4l-16 118q-8 58 -19 116q-4 29 -6 57.5t-2 54.5q0 135 45 221t100 119q10 6 22.5 10t22.5 6q6 2 13 3h10q68 0 107.5 -59.5t60.5 -129.5q8 -37 13 -73.5t5 -63.5 t-3 -56.5t-9 -60.5q-14 -59 -43 -113.5t-80 -80.5l19.5 -119t19.5 -117l19.5 -118.5l19.5 -118.5q4 -29 18.5 -43.5t32.5 -14.5q14 2 27.5 10.5t23.5 24.5q16 25 29.5 53.5t24.5 59.5q4 14 6 29.5t2 29.5q0 16 9 23.5t22 7.5h3h1q8 -2 15 -9.5t7 -21.5q0 -31 -8 -64.5 t-25 -70.5q-35 -82 -99 -152.5t-136 -85.5q-6 0 -13.5 -1t-13.5 -1q-68 0 -104.5 49.5t-48.5 108.5q0 4 -1 8t-1 8q-27 -59 -79 -109t-108 -63q-8 0 -15 -1t-13 -1q-33 0 -64 20.5t-55 65.5q-20 35 -27.5 76t-7.5 86zM166 457q0 -41 9 -80t28 -70q16 -27 30.5 -38t28.5 -11 q25 0 45.5 28.5t30.5 63.5q4 6 5 14.5t3 14.5l-31 205q-14 25 -31.5 38t-33.5 13q-14 0 -28.5 -12.5t-26.5 -34.5q-14 -27 -21.5 -61.5t-7.5 -69.5zM457 1196q0 -31 3 -65.5t7 -69.5l8 -57l8 -56q8 -49 16.5 -87t10.5 -48q45 35 66.5 103.5t21.5 144.5v5v7 q-2 70 -21.5 133.5t-58.5 98.5q-2 4 -7 6t-9 2q-25 0 -35 -33t-10 -84z" />
<glyph unicode="e" horiz-adv-x="575" d="M4 372v13q0 6 1 13.5t1 13.5q6 70 33 130t63 105q4 4 8.5 9.5t8.5 9.5q35 39 80 69.5t96 30.5h12q6 0 12 -2q53 -12 80 -54t33 -89q0 -8 1 -17.5t1 -17.5q0 -18 -2 -38t-6 -40q-14 -66 -52 -125t-95 -92q18 -12 37.5 -20.5t39.5 -12.5q10 -2 19.5 -3t19.5 -1 q41 2 80 18.5t72 49.5q33 31 53.5 73.5t24.5 93.5q2 14 11 21.5t19 7.5q2 0 4 -1l3 -1q8 -2 15 -8q6 -5 5 -13v-6v-3v-3l-4 -25l-4 -26q-37 -141 -159 -260t-271 -119h-6q-4 0 -9 2h-6h-8q-94 8 -154 93q-57 82 -57 202v11v11zM168 494q2 -39 14.5 -76t32.5 -68 q35 33 58.5 78t29.5 92q2 10 3 20.5t1 20.5q0 6 -1 16.5t-3 20.5q-6 18 -16.5 33.5t-28.5 15.5q-39 0 -57.5 -27.5t-24.5 -62.5l-4 -20q-2 -10 -2 -19v-5v-7q-2 -2 -2 -5v-7z" />
<glyph unicode="f" horiz-adv-x="583" d="M14 -127q0 45 4.5 87t10.5 75q2 12 3 21.5t3 17.5q23 102 64.5 188t99.5 129l-2 209h-30h-32q-14 0 -21.5 8t-9.5 19v4q0 10 8.5 19t22.5 9h60v25v25q0 25 -1 49q0 98 7 192q8 119 67 232q39 72 92.5 113.5t116.5 41.5t97 -46t40 -103q2 -2 2 -5v-5v-9v-10 q-2 -16 -10 -32.5t-26 -22.5q-2 0 -4.5 -1t-4.5 -1h-4h-4q-31 2 -57.5 32.5t-34.5 69.5q0 6 -1 13.5t-1 13.5q0 14 5 27.5t13 21.5h-5h-7q-45 0 -64.5 -39t-23.5 -88q-2 -27 -2 -52.5t2 -43.5v-3q4 -99 7 -197.5t5 -197.5h30h42h42h30q14 0 21 -8t9 -18v-1v-3 q0 -10 -7 -19.5t-23 -9.5h-29h-41h-42h-30l5 -128l4 -130l4 -128l4 -130q1 -16 1 -31q0 -73 -17 -136q-19 -77 -52 -134q-20 -41 -47 -71.5t-53 -51.5q-27 -20 -52.5 -31.5t-47.5 -11.5q-80 0 -108 78t-28 172v3v3zM70 -92v-19v-16q0 -45 7 -87t27 -75q8 -12 16 -17 q5 -4 10 -4q2 0 3 1q10 0 18.5 8t16.5 20q18 27 29.5 71t11.5 101v-2q0 55 -1 107.5t-3 105.5t-3 107.5t-1 107.5q-37 -43 -64.5 -110.5t-44.5 -145.5q-8 -33 -14 -72.5t-8 -80.5z" />
<glyph unicode="g" horiz-adv-x="702" d="M10 366q0 13 2 27q2 25 9.5 52.5t17.5 54.5q31 84 94.5 152.5t149.5 68.5q8 0 17 -1t17 -3v4h230v-98q0 -49 2 -97v-98v-98l107 112l110 111q4 2 6 4t6 4q2 0 5 1t5 1q12 0 20.5 -9t8.5 -19q0 -2 -1 -5.5t-1 -5.5q-2 -2 -4 -5t-4 -5l-128 -134l-130 -132v-126v-124 q0 -82 -19.5 -145.5t-50.5 -108.5q-29 -39 -75 -74t-95 -45q-8 0 -15 -1t-15 -1q-31 0 -58.5 15.5t-50.5 50.5q-14 27 -23 57q-7 25 -6 52v14q0 12 1 25t3 28q8 57 28 110.5t44 92.5q-8 -2 -19.5 -4.5t-21.5 -2.5h-5h-7q-70 8 -113 86q-41 74 -41 181v19v19zM127 485 q0 -10 1 -20t3 -23q6 -39 20.5 -76.5t32.5 -62.5q20 -27 38 -37t32 -10q29 0 46 34t19 83q0 49 -13 97t-44 89l-5 8q-5 8 -15 17q-10 10 -23.5 17t-28.5 7q-12 0 -22 -7t-21 -26q-10 -18 -15 -41.5t-5 -48.5zM199 -188q0 -6 2 -22.5t6 -35.5q4 -23 15 -41t28 -18 q31 0 46 29.5t21 64.5q4 25 5.5 48.5t1.5 35.5v-2v63v60q0 29 -1 59.5t-1 61.5q-51 -63 -87 -142t-36 -161z" />
<glyph unicode="h" horiz-adv-x="765" d="M6 922q0 96 19.5 170.5t50.5 128.5l4 8q2 4 6 8q27 43 72 81t92 48q6 0 13 1t16 1q31 0 58.5 -16.5t47.5 -57.5q14 -27 20.5 -55.5t8.5 -58.5q2 -6 2 -14v-15q0 -25 -2 -47.5t-6 -44.5q-14 -102 -59.5 -200.5t-112.5 -176.5l2 -350q14 31 29.5 60.5t29.5 60.5t29.5 60.5 t29.5 59.5q16 35 45 59.5t68 24.5h9q5 0 9 -2q29 -4 52.5 -24.5t25.5 -48.5q4 -49 9.5 -99.5t9.5 -99.5t9 -99.5t9 -99.5l46 75l48 75l46 75l46 74q6 10 13.5 14.5t15.5 2.5q10 0 18.5 -9.5t8.5 -21.5q0 -2 -1 -7t-5 -9l-48 -75l-47 -75l-46 -77l-48 -74q-25 -39 -57.5 -66 t-67.5 -37q-10 -4 -22.5 -6t-22.5 -2q-45 0 -79.5 36t-43.5 111q-4 53 -9 107.5t-11 107.5l-98 -200l2 -150h-232v217v217q0 109 -1 217.5t-1 217.5zM231 1073q0 -37 1 -74.5t1 -74.5v-75v-75q49 70 81 154t40 170q0 12 1 24.5t1 24.5q0 6 -2 27.5t-6 46.5q-6 27 -15 50 t-26 23q-29 0 -44 -35.5t-23 -78.5q-4 -33 -6.5 -64t-2.5 -43z" />
<glyph unicode="i" horiz-adv-x="370" d="M0 987q0 68 48 116t116 48t115 -48t47 -115.5t-47.5 -116t-114.5 -48.5q-68 0 -116 48t-48 116zM37 637l118 57l115 56v-122v-122q0 -61 1 -121.5t1 -122.5l62 98l61 99q4 8 11.5 11t15.5 3q12 0 20.5 -8t8.5 -21q0 -2 -1 -7t-6 -9l-116 -187l-119 -188h-158l-4 147 q-2 73 -2 146l-4 144z" />
<glyph unicode="j" horiz-adv-x="595" d="M4 -219q0 6 1 13t1 16q2 8 3 15t3 13q16 70 66.5 120t107.5 87q-2 152 -3 303.5t-3 300.5l116 40l114 40q2 -131 2 -261v-259l61 58l62 61l61 58l61 58q4 2 6.5 4.5t6.5 4.5q2 0 5 1t5 1q12 -2 20.5 -11.5t8.5 -19.5q0 -2 -1 -5t-1 -5q-2 -2 -4.5 -5t-4.5 -6l-286 -274 v-106v-109v-11q0 -53 -19 -96q-20 -47 -55 -81q-27 -29 -69 -51.5t-87 -30.5q-10 -2 -19 -3t-20 -1q-33 0 -61.5 12t-50.5 41q-14 20 -20.5 42.5t-6.5 45.5zM61 -219q0 -6 1 -12.5t4 -12.5q4 -18 15 -33.5t32 -15.5q35 0 51 25.5t22 58.5q0 8 1 17.5t1 17.5v-2q-2 41 -2 79 v74q-47 -35 -86 -84t-39 -112zM133 987q0 68 48 116t116 48t115 -48t47 -115.5t-47 -116t-115 -48.5t-116 48t-48 116z" />
<glyph unicode="k" horiz-adv-x="790" d="M12 487v218v217q0 96 19.5 170.5t48.5 128.5q31 53 64.5 86.5t70.5 48.5q14 6 29.5 9t29.5 3q59 0 102.5 -56.5t43.5 -164.5q0 -20 -1 -41t-5 -39q-12 -106 -59.5 -206.5t-114.5 -178.5l2 -195q6 16 17 37t26 41q29 43 68.5 82t82.5 49q4 0 10.5 1t12.5 1q14 0 27.5 -3 t25.5 -13q27 -18 37 -46t10 -63q0 -16 -3 -34.5t-7 -36.5q-10 -41 -27.5 -80t-38.5 -68q-4 -8 -9 -15t-11 -13l209 -125l33 49l32 51l34 49l34 49q4 6 8 9.5t8 3.5q2 2 4 2h4q12 0 20.5 -8.5t8.5 -20.5q0 -4 -1 -9t-5 -9q-10 -14 -19.5 -29.5l-19.5 -30.5q-2 -4 -5 -9t-7 -9 l-50 -80q-26 -39 -55 -76q-39 -49 -87 -81t-99 -32q-35 2 -68.5 18.5t-64.5 55.5l-22 29l-23 29l-44 57q-22 29 -46 57l2 -213h-230q0 109 -1 217t-1 217zM236 1073q0 -37 1 -74.5t1 -74.5v-75v-75l9 14q5 8 9 17q29 47 55.5 109.5t40.5 125.5q6 27 9.5 53.5t3.5 53.5 q0 35 -6.5 64.5t-20.5 56.5q-4 10 -9 15t-12 9q-2 0 -5 1t-5 1q-12 0 -23.5 -13t-21.5 -36q-14 -33 -20 -77t-6 -95zM271 372v-11q0 -10 1 -19h3h4h4q37 0 63.5 24.5t38.5 55.5l4 19.5t2 17.5q0 16 -9 27.5t-30 11.5q-35 0 -52 -28t-24 -62q-4 -19 -5 -36z" />
<glyph unicode="l" horiz-adv-x="460" d="M8 922q0 96 19.5 170.5t50.5 128.5q4 8 9 15l11 15q31 45 77 82t99 37h5h4q2 -2 4 -2h4q57 -8 84.5 -53t36.5 -96q4 -18 5 -37t1 -35q0 -18 -1 -35.5t-3 -36.5q-12 -106 -59.5 -209.5t-118.5 -183.5q2 -106 3 -214t1 -214q0 -25 9 -40t23 -13q8 0 16.5 5t18.5 13 q18 20 38 40l40 40q20 18 39.5 37.5t38.5 40.5q2 2 5 4t5 4q2 0 5 1t5 1q12 0 20.5 -9t8.5 -22v-5q0 -3 -2 -5q0 -2 -2 -5t-4 -5l-54 -54l-55 -57q-29 -27 -55 -54l-55 -56q-27 -27 -61 -44.5t-70 -17.5q-12 0 -24.5 3t-25.5 7q-45 18 -66.5 59.5t-25.5 86.5q-2 6 -2 12v12 v345q0 172 -2 344zM233 998q0 -38 3 -74v-75v-75q47 66 76.5 140.5t39.5 152.5q4 20 6 43t2 45v7v7q-2 33 -10 65t-28 52l-5 4q-2 2 -4 2q-2 2 -4 2h-4q-10 0 -19.5 -9t-15.5 -19q-4 -6 -7 -11.5t-5 -9.5q-12 -33 -18.5 -77t-6.5 -95v-75z" />
<glyph unicode="m" horiz-adv-x="1179" d="M2 651l242 -14l6 -361l40 75l40 75l38 75l40 74q18 35 47.5 58.5t68.5 23.5h10q5 0 9 -2q29 -6 50 -26.5t23 -48.5q0 -33 1 -67t4 -67q2 -35 3 -67.5t3 -67.5l64 132l65 130q16 37 49 60.5t67 23.5q16 0 33 -6t31 -18q10 -8 16 -18.5t11 -22.5q0 -2 1 -5t1 -5 q10 -106 19 -212t20 -212q31 27 61.5 57.5t56.5 63.5q47 57 80 107t37 73q2 10 8 15t13 7h3h3q12 0 21 -8t9 -20v-3v-4q-6 -27 -40.5 -81t-81.5 -113q-29 -35 -61 -68.5t-64 -62.5q-4 -4 -9.5 -8t-9.5 -9q-4 -4 -10 -8t-10 -8q-23 -16 -49.5 -30.5t-55.5 -22.5q-8 -2 -17 -3 t-18 -1q-16 0 -31.5 5t-31.5 17q-20 18 -33.5 51t-17.5 84q-6 53 -11.5 107.5t-9.5 107.5l-104 -213l6 -137h-236l-18 353l-186 -353h-181q-4 150 -7 299t-7 299z" />
<glyph unicode="n" horiz-adv-x="860" d="M2 55q2 70 3 138.5t3 138.5q0 70 1 138.5t3 137.5l215 82l13 -346l27 57l28 58l28 57l25 57q16 31 35.5 49.5t40.5 26.5q10 4 21.5 6t21.5 2q43 -2 78 -29.5t37 -74.5l12 -187l12 -188q41 49 79 101l75 104q4 6 9 12t9 13l29 39l29 38q6 8 12 11.5t12 1.5q12 0 22 -9 q8 -7 7 -16q0 -7 -1 -13q-1 -5 -5 -9l-57 -75l-56 -75l-56 -77l-57 -74q-27 -37 -63.5 -63t-75.5 -38q-14 -4 -27.5 -6t-27.5 -2q-49 0 -86 35t-41 112q-2 25 -3 49.5t-3 49.5q-2 23 -3 47t-3 49l-134 -281z" />
<glyph unicode="o" horiz-adv-x="686" d="M8 328q0 10 1 21t1 22q8 74 37 142.5t74 117.5q41 47 90 72.5t102 25.5q96 0 143.5 -71.5t55.5 -155.5v-12v-11v-30q0 -16 -2 -33q0 -16 -3 -31.5t-7 -32.5h5h5q55 0 107.5 36t87.5 79q10 10 17 20.5t13 20.5q4 8 11.5 11t15.5 3q12 0 20.5 -8t8.5 -20q0 -2 -1.5 -7.5 t-5.5 -9.5q-4 -6 -7 -11t-7 -9q-45 -61 -115.5 -112.5t-148.5 -51.5h-5q-3 0 -5 2h-7h-6q-14 -39 -33.5 -74t-46.5 -67q-35 -41 -78.5 -68t-88.5 -31q-6 -2 -12 -2h-11q-43 0 -84 22.5t-72 71.5q-27 41 -38 86.5t-11 94.5zM186 515l4 -23l13 -34q6 -17 14 -32q6 -12 12 -22 l11 -15q6 -8 17 -20l24 -25q14 -12 29.5 -23.5t31.5 -19.5q10 -6 21.5 -9t21.5 -3l15.5 4t13.5 6q10 8 14 20.5t4 26.5q0 12 -2 24.5t-6 26.5l-12 29l-13 29q-8 12 -14 22l-10 17q-6 8 -16.5 20t-24.5 25q-12 12 -26.5 23t-28.5 20q-12 6 -24.5 10t-23.5 4q-8 -2 -15 -4 t-13 -6q-10 -8 -16 -21q-4 -9 -3 -19q-1 -17 2 -31z" />
<glyph unicode="p" horiz-adv-x="741" d="M6 -432q4 272 9 541.5l10 539.5l233 94l-6 -163l274 147q43 -53 64.5 -116.5t21.5 -129.5q0 -33 -6 -68.5t-18 -70.5l44 32l44 29q20 16 43 32l43 30q2 2 3 2t3 2q4 0 7 1t5 1q12 0 20.5 -9t8.5 -20q0 -6 -3 -12t-11 -12l-90 -65l-89 -62l-90 -65l-90 -64q-2 -2 -4 -3 l-2 -1q-31 -23 -66.5 -41.5t-74.5 -26.5q-14 -2 -27.5 -3t-25.5 -1l-5 -118l-4 -118q-4 -59 -6 -118l-4 -119zM244 356v-22v-19q2 -8 5 -16t9 -16q14 -31 40 -56q24 -23 55 -22h5q45 4 64.5 45t19.5 92v15q0 7 -2 14q-6 63 -36.5 115.5t-81.5 52.5q-47 0 -62.5 -39 t-15.5 -86q-1 -10 -2 -19q0 -6 1 -19.5t1 -19.5z" />
<glyph unicode="q" horiz-adv-x="747" d="M0 358q0 10 1 20.5t1 20.5q8 72 37 139.5t76 114.5q35 35 73.5 52.5t77.5 17.5q41 0 81 -20.5t69 -65.5l166 86l-15 -352l114 60l112 58q4 2 9 3.5t7 1.5q12 0 20 -10q7 -7 7 -15q0 -11 -3 -19q-3 -7 -14 -12l-62 -32l-65 -33l-62 -35l-65 -33q-4 -160 -10 -318l-12 -321 l-156 -59l-31 549q-23 -23 -49 -39.5t-53 -24.5q-12 -4 -25.5 -6t-25.5 -2q-51 0 -98.5 33t-75.5 96q-14 35 -21.5 70.5t-7.5 74.5zM174 436q2 -14 6 -34.5t13 -43.5q14 -39 39 -70q24 -30 58 -30h5q16 2 30.5 11.5t24.5 25.5l-14 266q-14 20 -34 36q-17 14 -38 14 q-3 0 -6 -1q-39 -2 -63 -52q-21 -43 -22 -102q0 -10 1 -20z" />
<glyph unicode="r" horiz-adv-x="673" d="M0 739q0 16 9 23.5t22 7.5q10 0 19 -7t9 -24v-57v-57l328 39l15.5 -198.5l15.5 -197.5q2 -14 9 -21t15 -5q8 0 15.5 6t13.5 14l4 4l3 3l45 60l44 60l43 58l43 59q6 8 12.5 11t12.5 1q12 0 21 -8q8 -7 8 -16q0 -7 -1 -14q-1 -5 -6 -9l-56 -75l-56 -74l-57 -77l-56 -75 q-31 -41 -82 -76t-108 -35h-11q-6 0 -12 2q-53 10 -78.5 53.5t-29.5 94.5q-4 70 -9.5 138.5t-11.5 135.5l-129 -69q0 41 -1 82t-1 82q0 39 -1 79.5t-1 81.5z" />
<glyph unicode="s" horiz-adv-x="505" d="M-16 401q12 12 25.5 32t29.5 40l1 1q1 1 1 3q4 2 6 6t4 6q-8 2 -15 3.5t-18 3.5l121 266l47 -17q23 -8 43 -22q74 -47 106 -126t32 -165v-13v-13q-4 -51 -17.5 -101.5t-34.5 -93.5l51 53l52 53l50 52l50 53q6 6 12.5 8t12.5 2q12 0 20 -9t8 -20q-2 -6 -4 -11t-6 -9 l-123 -127l-121 -127q-31 -33 -68.5 -52.5t-76.5 -23.5q-6 -2 -11 -2h-11q-45 0 -84 22.5t-66 73.5l61 166q35 -49 72 -93t90 -75l8 29q4 14 7 29q2 12 3 26.5t1 28.5q-2 70 -33 128t-98 87q-4 -6 -8.5 -11t-10.5 -11l-1 -1q-1 -1 -1 -4l-32 -43q-15 -20 -25 -32z" />
<glyph unicode="t" horiz-adv-x="618" d="M0 612v3v1q2 8 9 15.5t22 7.5h58h58q2 102 5.5 204.5t5.5 203.5l204 108l-6 -516h79h77q16 0 24.5 -9t8.5 -22v-3q0 -1 -2 -1q-2 -8 -9.5 -15t-21.5 -7h-38h-40h-40h-38q-2 -96 -3 -193.5t-3 -193.5q0 -12 5 -17.5t14 -5.5q4 0 8 2t10 4q4 2 9 5t10 7l4 5l4 4l61 68 l62 69l60 68l60 69q6 6 12.5 9t12.5 1q12 0 20.5 -8t8.5 -20v-5q0 -3 -2 -6q0 -2 -2 -5t-5 -5l-24 -28q-12 -14 -25 -27q-10 -14 -21 -27.5t-24 -25.5l-76 -89q-39 -44 -79 -83q-6 -6 -13.5 -12.5t-13.5 -12.5q-35 -29 -76 -53.5t-86 -24.5q-8 0 -15 1t-16 3 q-20 4 -38.5 18.5t-32.5 39.5q-12 23 -20 56q-6 26 -5 59v20q0 43 1 85t3 83t3 83t1 83h-56h-58q-14 0 -22.5 9t-8.5 21z" />
<glyph unicode="u" horiz-adv-x="854" d="M4 610l236 80l14 -403q41 82 68.5 167t52.5 171l219 51l12 -249l12 -247l89 113l84 115l28 39l29 38q6 8 12 11.5t12 1.5q12 0 22 -9q8 -7 7 -16q0 -7 -1 -13q-1 -5 -5 -9l-56 -75l-57 -75l-56 -75l-56 -74q-27 -37 -64 -63t-76 -38q-14 -4 -27.5 -6t-27.5 -2 q-49 0 -86 35t-41 112q0 18 -1 36t-3 36t-3 35.5t-1 36.5q-8 -20 -22.5 -52t-34.5 -67q-29 -53 -69 -97t-87 -44q-8 0 -16.5 3t-18.5 5q-33 12 -49 42t-23 62q-2 12 -3 24.5t-1 25.5q-2 94 -5 187t-7 187z" />
<glyph unicode="v" horiz-adv-x="565" d="M0 582l197 77l84 -391q20 41 36.5 84t26.5 88q-39 20 -50 58.5t-15 79.5q0 10 1 27.5t3 35.5q6 29 18 51.5t37 22.5q37 0 52.5 -39t19.5 -86q2 -12 2 -26v-25q0 -20 -1 -37t-3 -27q41 -14 81.5 -23.5t81.5 -17.5q12 -2 17.5 -10t5.5 -18v-4q-2 -11 -9 -19t-20 -6h-4 q-41 8 -82 17t-82 24q-18 -80 -55 -154t-82 -143q-14 -23 -31.5 -36t-35.5 -17q-4 -2 -10.5 -3.5t-12.5 -1.5q-31 0 -59.5 24t-44.5 63q-33 78 -43.5 158.5t-16.5 164.5v5v7q-2 25 -3 48.5t-3 48.5z" />
<glyph unicode="w" horiz-adv-x="948" d="M-2 569l213 103l74 -391l80 319l190 102l123 -444q2 6 4 11t6 10l30 76q15 40 23 85q-37 20 -48 58.5t-15 79.5v12q0 48 14 83q16 40 43 42h4q36 0 51 -39q15 -41 19 -88q2 -12 2 -25v-24q0 -20 -1 -37t-3 -27q41 -14 82 -23.5t82 -17.5q14 -2 20 -11t6 -20q0 -2 -1 -4 l-1 -2q-2 -8 -9 -15t-19 -5h-3h-3q-41 8 -82 17t-82 24q-12 -55 -33 -106l-43 -101q-10 -18 -19 -38l-16 -40l-194 -51l-109 352l-76 -305l-97 -42l-95 -44l-59 263z" />
<glyph unicode="x" horiz-adv-x="593" d="M2 182q0 18 3 37t9 33q10 20 22.5 32.5t29.5 12.5q27 0 40 -21.5t19 -46.5q2 -14 4 -25t2 -22q4 4 7 8.5t7 8.5l7 6q4 4 6 8q-35 66 -51.5 139.5t-20.5 149.5q-2 23 -3 45t-1 45l172 119l45 -153q23 -77 55 -150q12 29 21 58l16 60q-10 12 -18 40t-13 59v11v11 q0 29 8.5 53.5t24.5 34.5q6 4 12.5 5t14.5 1h1h3h3h1q23 -6 32 -29.5t9 -56.5v-17q0 -9 -2 -17q-2 -18 -5 -38t-7 -36l-8 -30l-5 -21q-10 -45 -24.5 -85t-30.5 -65q16 -29 34.5 -56.5t39.5 -51.5l38 52l40 52l38 50l37 52q6 8 12.5 11.5t12.5 1.5q12 0 21 -8q8 -7 8 -17 q0 -7 -1 -13q-1 -5 -5 -9l-99 -130l-98 -130q-29 -39 -61.5 -57.5t-67.5 -18.5h-11q-5 0 -12 2q-33 6 -64.5 28.5t-58.5 57.5q-8 -8 -18 -19.5t-22 -23.5q-10 -10 -23.5 -21.5t-26.5 -19.5q-10 -6 -19 -9t-20 -3q-14 0 -25 10t-22 33q-6 16 -9 34.5t-3 38.5z" />
<glyph unicode="y" horiz-adv-x="774" d="M2 608l238 105l14 -424q39 80 66.5 165t52.5 171l223 63l-2 -434l118 101l115 102q4 2 6.5 4t6.5 2q2 2 5 2h5q10 0 18.5 -8t8.5 -21q0 -6 -3.5 -12t-9.5 -12l-135 -117l-137 -119v-43v-45q0 -41 -9.5 -92t-27.5 -107q-39 -113 -116 -206q-72 -88 -174 -89h-13 q-59 0 -92 45.5t-35 102.5v19v20q10 104 80.5 198.5t159.5 141.5l8 307l-25.5 -71t-38.5 -91q-35 -72 -81 -132t-103 -60q-8 0 -16.5 3t-18.5 5q-14 4 -27.5 16.5t-23.5 30.5t-16.5 45t-8.5 62q-2 47 -3 93t-3 93t-3 93t-3 93zM182 -238v-7v-7q0 -29 10.5 -54.5t36.5 -35.5 q6 -2 12.5 -3t12.5 -1q35 2 58.5 31.5t35.5 66.5q4 14 6 27.5t2 25.5q0 31 1 63t3 62q0 31 1 62t1 61q-53 -37 -92 -86t-63 -100q0 -6 -2 -10l-4 -9q0 -4 -2 -7t-2 -7q-4 -14 -8.5 -34t-6.5 -38z" />
<glyph unicode="z" horiz-adv-x="571" d="M2 466v15q0 10 1 21.5t3 23.5q12 68 61 126q46 56 113 57h4q12 0 24.5 -2t27.5 -7l147 -54l149 -54l-95 -237l-95 -236q10 -2 19 -2h18q23 0 43 4t39 12q-6 10 -9 21.5t-8 23.5q0 8 -1 16q-1 9 -1 25q0 37 14 64q15 31 40 32q25 0 38 -19.5t19 -43.5q2 -12 3 -22.5 t1 -18.5v-3v-1v-3v-3q0 -12 -1 -24.5t-5 -22.5q-10 -45 -52 -66.5t-91 -26.5q-8 -2 -17 -2h-16q-14 0 -29.5 2t-28.5 5l-65 12l-64 12l-65 12l-66 13l57 124l54 126l56 125l55 124q-10 10 -29 18.5t-37 10.5q-6 2 -11 2h-12q-16 0 -29.5 -5t-21.5 -15q-2 -4 -4 -9.5 t-2 -13.5l5 -19.5t9 -27.5l5 -8q2 -4 2 -8q2 -6 2 -11v-8q0 -10 -2 -21.5t-7 -21.5q-10 -33 -33.5 -58.5t-52.5 -25.5h-4h-2q-2 0 -4 1t-4 1q-18 4 -29.5 20.5t-13.5 35.5q-2 8 -2 15z" />
<glyph unicode="{" />
<glyph unicode="|" />
<glyph unicode="}" />
<glyph unicode="~" />
<glyph unicode="&#xa2;" horiz-adv-x="710" d="M33 618v24q0 11 2 24q10 125 71.5 231.5t165.5 122.5q10 57 17.5 113.5l15.5 113.5q2 12 8 18.5t15 8.5h3h3h3h1q10 -2 18.5 -9.5t5.5 -19.5v-3v-3q-8 -55 -15 -110.5t-15 -110.5q33 -6 57.5 -24.5t44.5 -41.5l-57 -174q-4 4 -8 9.5t-9 11.5l-25 28l-28 29l-39 -266 q29 -29 61.5 -44.5t67.5 -13.5q31 0 60.5 11.5t56.5 36.5l15 15l16 15q27 29 46 57.5t34 47.5q6 8 12 11t12 1q12 0 21.5 -8t7.5 -21q0 -4 -1 -9t-5 -9l-56 -70l-65 -78q-43 -49 -92 -95t-99 -79q-33 -20 -66.5 -31.5t-64.5 -11.5q-6 -39 -11 -76.5t-9 -74.5q-6 -39 -11 -77 t-12 -77q-2 -10 -8 -16t-14 -8h-3h-3h-3h-1q-10 2 -18.5 8t-6.5 18v3v3q10 78 22 156l23 156q-72 33 -106.5 113.5t-34.5 174.5zM201 770q0 -8 1 -17.5t1 -17.5q2 -18 7 -35.5t11 -33.5l33 227q-2 2 -5 3t-5 3t-5 3t-6 1q-12 -23 -20 -48.5t-10 -49.5q-2 -10 -2 -19v-16z " />
<glyph unicode="&#xa3;" horiz-adv-x="1089" d="M49 227q0 10 1 20.5t5 22.5q6 31 23.5 61.5t42.5 57.5q35 37 71.5 53.5t75.5 16.5q63 0 130 -32t137 -75q-6 49 -31 99.5t-58 101.5h-219l-65 94h221l-36 53l-34 54q-31 53 -50 106t-19 107v6v6v5v5q12 152 112.5 253t243.5 101q23 0 46.5 -3t47.5 -9 q115 -31 170.5 -97.5t63.5 -143.5q2 -8 2 -18v-19v-5v-8q-4 -100 -69.5 -185t-155.5 -83q-20 0 -44 6t-47 19l-21 13q-11 7 -24 17q-18 16 -31.5 34t-21.5 36q-4 8 -6 17.5t-4 17.5q0 4 -1 7t-1 7v6v6q0 55 41 94.5t98 39.5h4h6q2 -2 4 -2h5l12 -54q-27 -20 -41.5 -45.5 t-14.5 -54.5q0 -39 28 -69.5t81 -30.5q23 0 39 15t29 34l3 3q1 1 1 3q12 23 18 44t6 44q0 55 -31.5 106.5t-78.5 79.5q-20 14 -49 20.5t-58 6.5h-13q-7 0 -13 -2q-45 -4 -86 -23.5t-62 -52.5q-8 -14 -14 -34.5t-6 -43.5q0 -10 2 -22l4 -25q16 -61 42.5 -119.5t55.5 -113.5 q4 -6 7 -12.5t5 -12.5l21 -42l20 -42h226l65 -94h-250q14 -39 24.5 -84t10.5 -92q0 -20 -3 -42t-9 -42q12 -8 29 -18l34 -19l45 -20q23 -10 47 -19q20 -6 41 -10t39 -4q27 0 48.5 8t35.5 29q2 4 5.5 7t5.5 7t3 8t3 8q8 14 17 26.5t24 12.5q4 0 7 -1t5 -3q10 -6 14 -12t4 -14 q0 -4 -1 -9.5t-3 -9.5q-23 -104 -87 -160.5t-150 -56.5q-27 2 -55.5 7t-57.5 18l-19.5 8t-19.5 10q-23 12 -48 32l-52 40q-47 -45 -110.5 -78t-131.5 -39q-8 -2 -16 -2h-17q-45 0 -88 15.5t-78 47.5q-29 29 -43 60.5t-14 64.5zM109 213q0 -6 2 -10q10 -37 38.5 -61.5 t61.5 -35.5q16 -4 33.5 -7t34.5 -3q61 0 117.5 31t95.5 78q-35 31 -72 58.5t-74 47.5q-31 16 -60.5 26.5t-58.5 10.5q-25 0 -47 -8t-45 -29q-10 -10 -17 -26.5t-9 -34.5v-11v-12v-14z" />
<glyph unicode="&#xa5;" horiz-adv-x="915" d="M41 518v57h113q-2 12 -5.5 24.5t-5.5 23.5h-102v59h90l-8 74q-4 37 -6 73q0 18 -1 37t-3 37l-4 69q-2 34 -7 66l246 99l113 -535q35 61 59.5 127t38.5 135q-4 2 -7 4t-5 2q-18 10 -29.5 22.5t-21.5 37.5q-8 23 -14.5 50.5t-8.5 59.5q0 12 1 34t5 46q6 35 20.5 63.5 t43.5 28.5t46 -28.5t27 -61.5q6 -20 8.5 -39.5t4.5 -31.5q2 -39 1 -77t-5 -75q41 -16 83 -27.5t85 -19.5q14 -4 28.5 -7t28.5 -5q12 -2 18 -10.5t6 -18.5v-3q-2 -9 -9 -16.5t-19 -7.5h-3h-3q-14 2 -28.5 5.5t-29.5 5.5l-85 20q-42 10 -83 25q-8 -39 -21 -79t-30 -79h96v-59 h-122q-2 -6 -5.5 -12.5t-7.5 -10.5q-2 -6 -5 -12t-7 -13h147v-57h-180l-4 -8v-457h-231v344q-20 18 -35.5 43t-26.5 52q-2 6 -5 13t-5 13h-131z" />
<glyph unicode="&#xa9;" />
<glyph unicode="&#xad;" horiz-adv-x="276" d="M18 537v73h215v-73h-215z" />
<glyph unicode="&#xae;" />
<glyph unicode="&#xb4;" horiz-adv-x="565" d="M74 1475l74 45l77 45l77 45l75 45q10 6 21.5 9t19.5 3q31 0 49 -24.5t18 -53.5q0 -20 -11 -38.5t-40 -26.5l-171 -49l-169 -50z" />
<glyph unicode="&#x2000;" horiz-adv-x="833" />
<glyph unicode="&#x2001;" horiz-adv-x="1667" />
<glyph unicode="&#x2002;" horiz-adv-x="833" />
<glyph unicode="&#x2003;" horiz-adv-x="1667" />
<glyph unicode="&#x2004;" horiz-adv-x="555" />
<glyph unicode="&#x2005;" horiz-adv-x="415" />
<glyph unicode="&#x2006;" horiz-adv-x="276" />
<glyph unicode="&#x2007;" horiz-adv-x="276" />
<glyph unicode="&#x2008;" horiz-adv-x="206" />
<glyph unicode="&#x2009;" horiz-adv-x="331" />
<glyph unicode="&#x200a;" horiz-adv-x="92" />
<glyph unicode="&#x2010;" horiz-adv-x="276" d="M18 537v73h215v-73h-215z" />
<glyph unicode="&#x2011;" horiz-adv-x="276" d="M18 537v73h215v-73h-215z" />
<glyph unicode="&#x2012;" horiz-adv-x="276" d="M18 537v73h215v-73h-215z" />
<glyph unicode="&#x2013;" horiz-adv-x="675" d="M25 537v73h634v-73h-634z" />
<glyph unicode="&#x2014;" horiz-adv-x="931" d="M-4 537v73h952v-73h-952z" />
<glyph unicode="&#x2018;" horiz-adv-x="210" d="M16 1186l142 246l63 -37l-141 -246z" />
<glyph unicode="&#x2019;" horiz-adv-x="210" d="M16 1186l142 246l63 -37l-141 -246z" />
<glyph unicode="&#x201c;" horiz-adv-x="376" d="M16 1186l142 246l63 -37l-141 -246zM160 1165l141 246l64 -37l-142 -246z" />
<glyph unicode="&#x201d;" horiz-adv-x="376" d="M16 1186l142 246l63 -37l-141 -246zM160 1165l141 246l64 -37l-142 -246z" />
<glyph unicode="&#x2022;" horiz-adv-x="471" d="M76 635q0 66 47 113t113 47t111.5 -47.5t45.5 -112.5q0 -63 -46 -110.5t-111 -47.5q-66 0 -113 47.5t-47 110.5z" />
<glyph unicode="&#x2026;" horiz-adv-x="753" d="M53 145q0 39 26.5 67t65.5 28t66 -28t27 -67t-27 -65.5t-66 -26.5t-65.5 26.5t-26.5 65.5zM299 145q0 39 26.5 67t65.5 28t65.5 -28t26.5 -67t-26.5 -65.5t-65.5 -26.5t-65.5 26.5t-26.5 65.5zM524 145q0 39 27 67t65 28q39 0 66 -28t27 -67t-27 -65.5t-66 -26.5 t-65.5 26.5t-26.5 65.5z" />
<glyph unicode="&#x202f;" horiz-adv-x="331" />
<glyph unicode="&#x205f;" horiz-adv-x="415" />
<glyph unicode="&#x2122;" />
<glyph unicode="&#xe000;" horiz-adv-x="740" d="M0 740h740v-740h-740v740z" />
<glyph unicode="&#xfb01;" horiz-adv-x="954" d="M584 987q0 68 48 116t116 48t115 -48t47 -115.5t-47.5 -116t-114.5 -48.5q-68 0 -116 48t-48 116zM621 637l118 57l115 56v-122v-122q0 -61 1 -121.5t1 -122.5l62 98l61 99q4 8 11.5 11t15.5 3q12 0 20.5 -8t8.5 -21q0 -2 -1 -7t-6 -9l-116 -187l-119 -188h-158l-4 147 q-2 73 -2 146l-4 144zM14 -127q0 45 4.5 87t10.5 75q2 12 3 21.5t3 17.5q23 102 64.5 188t99.5 129l-2 209h-30h-32q-14 0 -21.5 8t-9.5 19v4q0 10 8.5 19t22.5 9h60v25v25q0 25 -1 49q0 98 7 192q8 119 67 232q39 72 92.5 113.5t116.5 41.5t97 -46t40 -103q2 -2 2 -5v-5v-9 v-10q-2 -16 -10 -32.5t-26 -22.5q-2 0 -4.5 -1t-4.5 -1h-4h-4q-31 2 -57.5 32.5t-34.5 69.5q0 6 -1 13.5t-1 13.5q0 14 5 27.5t13 21.5h-5h-7q-45 0 -64.5 -39t-23.5 -88q-2 -27 -2 -52.5t2 -43.5v-3q4 -99 7 -197.5t5 -197.5h30h42h42h30q14 0 21 -8t9 -18v-1v-3 q0 -10 -7 -19.5t-23 -9.5h-29h-41h-42h-30l5 -128l4 -130l4 -128l4 -130q1 -16 1 -31q0 -73 -17 -136q-19 -77 -52 -134q-20 -41 -47 -71.5t-53 -51.5q-27 -20 -52.5 -31.5t-47.5 -11.5q-80 0 -108 78t-28 172v3v3zM70 -92v-19v-16q0 -45 7 -87t27 -75q8 -12 16 -17 q5 -4 10 -4q2 0 3 1q10 0 18.5 8t16.5 20q18 27 29.5 71t11.5 101v-2q0 55 -1 107.5t-3 105.5t-3 107.5t-1 107.5q-37 -43 -64.5 -110.5t-44.5 -145.5q-8 -33 -14 -72.5t-8 -80.5z" />
<glyph unicode="&#xfb02;" horiz-adv-x="1044" d="M592 922q0 96 19.5 170.5t50.5 128.5q4 8 9 15l11 15q31 45 77 82t99 37h5h4q2 -2 4 -2h4q57 -8 84.5 -53t36.5 -96q4 -18 5 -37t1 -35q0 -18 -1 -35.5t-3 -36.5q-12 -106 -59.5 -209.5t-118.5 -183.5q2 -106 3 -214t1 -214q0 -25 9 -40t23 -13q8 0 16.5 5t18.5 13 q18 20 38 40l40 40q20 18 39.5 37.5t38.5 40.5q2 2 5 4t5 4q2 0 5 1t5 1q12 0 20.5 -9t8.5 -22v-5q0 -3 -2 -5q0 -2 -2 -5t-4 -5l-54 -54l-55 -57q-29 -27 -55 -54l-55 -56q-27 -27 -61 -44.5t-70 -17.5q-12 0 -24.5 3t-25.5 7q-45 18 -66.5 59.5t-25.5 86.5q-2 6 -2 12v12 v345q0 172 -2 344zM817 998q0 -38 3 -74v-75v-75q47 66 76.5 140.5t39.5 152.5q4 20 6 43t2 45v7v7q-2 33 -10 65t-28 52l-5 4q-2 2 -4 2q-2 2 -4 2h-4q-10 0 -19.5 -9t-15.5 -19q-4 -6 -7 -11.5t-5 -9.5q-12 -33 -18.5 -77t-6.5 -95v-75zM14 -127q0 45 4.5 87t10.5 75 q2 12 3 21.5t3 17.5q23 102 64.5 188t99.5 129l-2 209h-30h-32q-14 0 -21.5 8t-9.5 19v4q0 10 8.5 19t22.5 9h60v25v25q0 25 -1 49q0 98 7 192q8 119 67 232q39 72 92.5 113.5t116.5 41.5t97 -46t40 -103q2 -2 2 -5v-5v-9v-10q-2 -16 -10 -32.5t-26 -22.5q-2 0 -4.5 -1 t-4.5 -1h-4h-4q-31 2 -57.5 32.5t-34.5 69.5q0 6 -1 13.5t-1 13.5q0 14 5 27.5t13 21.5h-5h-7q-45 0 -64.5 -39t-23.5 -88q-2 -27 -2 -52.5t2 -43.5v-3q4 -99 7 -197.5t5 -197.5h30h42h42h30q14 0 21 -8t9 -18v-1v-3q0 -10 -7 -19.5t-23 -9.5h-29h-41h-42h-30l5 -128l4 -130 l4 -128l4 -130q1 -16 1 -31q0 -73 -17 -136q-19 -77 -52 -134q-20 -41 -47 -71.5t-53 -51.5q-27 -20 -52.5 -31.5t-47.5 -11.5q-80 0 -108 78t-28 172v3v3zM70 -92v-19v-16q0 -45 7 -87t27 -75q8 -12 16 -17q5 -4 10 -4q2 0 3 1q10 0 18.5 8t16.5 20q18 27 29.5 71t11.5 101 v-2q0 55 -1 107.5t-3 105.5t-3 107.5t-1 107.5q-37 -43 -64.5 -110.5t-44.5 -145.5q-8 -33 -14 -72.5t-8 -80.5z" />
<glyph unicode="&#xfb03;" horiz-adv-x="1538" d="M1167 987q0 68 48 116t116 48t115 -48t47 -115.5t-47.5 -116t-114.5 -48.5q-68 0 -116 48t-48 116zM1204 637l118 57l115 56v-122v-122q0 -61 1 -121.5t1 -122.5l62 98l61 99q4 8 11.5 11t15.5 3q12 0 20.5 -8t8.5 -21q0 -2 -1 -7t-6 -9l-116 -187l-119 -188h-158l-4 147 q-2 73 -2 146l-4 144zM598 -127q0 45 4.5 87t10.5 75q2 12 3 21.5t3 17.5q23 102 64.5 188t99.5 129l-2 209h-30h-32q-14 0 -21.5 8t-9.5 19v4q0 10 8.5 19t22.5 9h60v25v25q0 25 -1 49q0 98 7 192q8 119 67 232q39 72 92.5 113.5t116.5 41.5t97 -46t40 -103q2 -2 2 -5v-5 v-9v-10q-2 -16 -10 -32.5t-26 -22.5q-2 0 -4.5 -1t-4.5 -1h-4h-4q-31 2 -57.5 32.5t-34.5 69.5q0 6 -1 13.5t-1 13.5q0 14 5 27.5t13 21.5h-5h-7q-45 0 -64.5 -39t-23.5 -88q-2 -27 -2 -52.5t2 -43.5v-3q4 -99 7 -197.5t5 -197.5h30h42h42h30q14 0 21 -8t9 -18v-1v-3 q0 -10 -7 -19.5t-23 -9.5h-29h-41h-42h-30l5 -128l4 -130l4 -128l4 -130q1 -16 1 -31q0 -73 -17 -136q-19 -77 -52 -134q-20 -41 -47 -71.5t-53 -51.5q-27 -20 -52.5 -31.5t-47.5 -11.5q-80 0 -108 78t-28 172v3v3zM654 -92v-19v-16q0 -45 7 -87t27 -75q8 -12 16 -17 q5 -4 10 -4q2 0 3 1q10 0 18.5 8t16.5 20q18 27 29.5 71t11.5 101v-2q0 55 -1 107.5t-3 105.5t-3 107.5t-1 107.5q-37 -43 -64.5 -110.5t-44.5 -145.5q-8 -33 -14 -72.5t-8 -80.5zM14 -127q0 45 4.5 87t10.5 75q2 12 3 21.5t3 17.5q23 102 64.5 188t99.5 129l-2 209h-30h-32 q-14 0 -21.5 8t-9.5 19v4q0 10 8.5 19t22.5 9h60v25v25q0 25 -1 49q0 98 7 192q8 119 67 232q39 72 92.5 113.5t116.5 41.5t97 -46t40 -103q2 -2 2 -5v-5v-9v-10q-2 -16 -10 -32.5t-26 -22.5q-2 0 -4.5 -1t-4.5 -1h-4h-4q-31 2 -57.5 32.5t-34.5 69.5q0 6 -1 13.5t-1 13.5 q0 14 5 27.5t13 21.5h-5h-7q-45 0 -64.5 -39t-23.5 -88q-2 -27 -2 -52.5t2 -43.5v-3q4 -99 7 -197.5t5 -197.5h30h42h42h30q14 0 21 -8t9 -18v-1v-3q0 -10 -7 -19.5t-23 -9.5h-29h-41h-42h-30l5 -128l4 -130l4 -128l4 -130q1 -16 1 -31q0 -73 -17 -136q-19 -77 -52 -134 q-20 -41 -47 -71.5t-53 -51.5q-27 -20 -52.5 -31.5t-47.5 -11.5q-80 0 -108 78t-28 172v3v3zM70 -92v-19v-16q0 -45 7 -87t27 -75q8 -12 16 -17q5 -4 10 -4q2 0 3 1q10 0 18.5 8t16.5 20q18 27 29.5 71t11.5 101v-2q0 55 -1 107.5t-3 105.5t-3 107.5t-1 107.5 q-37 -43 -64.5 -110.5t-44.5 -145.5q-8 -33 -14 -72.5t-8 -80.5z" />
<glyph unicode="&#xfb04;" horiz-adv-x="1628" d="M1175 922q0 96 19.5 170.5t50.5 128.5q4 8 9 15l11 15q31 45 77 82t99 37h5h4q2 -2 4 -2h4q57 -8 84.5 -53t36.5 -96q4 -18 5 -37t1 -35q0 -18 -1 -35.5t-3 -36.5q-12 -106 -59.5 -209.5t-118.5 -183.5q2 -106 3 -214t1 -214q0 -25 9 -40t23 -13q8 0 16.5 5t18.5 13 q18 20 38 40l40 40q20 18 39.5 37.5t38.5 40.5q2 2 5 4t5 4q2 0 5 1t5 1q12 0 20.5 -9t8.5 -22v-5q0 -3 -2 -5q0 -2 -2 -5t-4 -5l-54 -54l-55 -57q-29 -27 -55 -54l-55 -56q-27 -27 -61 -44.5t-70 -17.5q-12 0 -24.5 3t-25.5 7q-45 18 -66.5 59.5t-25.5 86.5q-2 6 -2 12v12 v345q0 172 -2 344zM1400 998q0 -38 3 -74v-75v-75q47 66 76.5 140.5t39.5 152.5q4 20 6 43t2 45v7v7q-2 33 -10 65t-28 52l-5 4q-2 2 -4 2q-2 2 -4 2h-4q-10 0 -19.5 -9t-15.5 -19q-4 -6 -7 -11.5t-5 -9.5q-12 -33 -18.5 -77t-6.5 -95v-75zM598 -127q0 45 4.5 87t10.5 75 q2 12 3 21.5t3 17.5q23 102 64.5 188t99.5 129l-2 209h-30h-32q-14 0 -21.5 8t-9.5 19v4q0 10 8.5 19t22.5 9h60v25v25q0 25 -1 49q0 98 7 192q8 119 67 232q39 72 92.5 113.5t116.5 41.5t97 -46t40 -103q2 -2 2 -5v-5v-9v-10q-2 -16 -10 -32.5t-26 -22.5q-2 0 -4.5 -1 t-4.5 -1h-4h-4q-31 2 -57.5 32.5t-34.5 69.5q0 6 -1 13.5t-1 13.5q0 14 5 27.5t13 21.5h-5h-7q-45 0 -64.5 -39t-23.5 -88q-2 -27 -2 -52.5t2 -43.5v-3q4 -99 7 -197.5t5 -197.5h30h42h42h30q14 0 21 -8t9 -18v-1v-3q0 -10 -7 -19.5t-23 -9.5h-29h-41h-42h-30l5 -128l4 -130 l4 -128l4 -130q1 -16 1 -31q0 -73 -17 -136q-19 -77 -52 -134q-20 -41 -47 -71.5t-53 -51.5q-27 -20 -52.5 -31.5t-47.5 -11.5q-80 0 -108 78t-28 172v3v3zM654 -92v-19v-16q0 -45 7 -87t27 -75q8 -12 16 -17q5 -4 10 -4q2 0 3 1q10 0 18.5 8t16.5 20q18 27 29.5 71 t11.5 101v-2q0 55 -1 107.5t-3 105.5t-3 107.5t-1 107.5q-37 -43 -64.5 -110.5t-44.5 -145.5q-8 -33 -14 -72.5t-8 -80.5zM14 -127q0 45 4.5 87t10.5 75q2 12 3 21.5t3 17.5q23 102 64.5 188t99.5 129l-2 209h-30h-32q-14 0 -21.5 8t-9.5 19v4q0 10 8.5 19t22.5 9h60v25v25 q0 25 -1 49q0 98 7 192q8 119 67 232q39 72 92.5 113.5t116.5 41.5t97 -46t40 -103q2 -2 2 -5v-5v-9v-10q-2 -16 -10 -32.5t-26 -22.5q-2 0 -4.5 -1t-4.5 -1h-4h-4q-31 2 -57.5 32.5t-34.5 69.5q0 6 -1 13.5t-1 13.5q0 14 5 27.5t13 21.5h-5h-7q-45 0 -64.5 -39t-23.5 -88 q-2 -27 -2 -52.5t2 -43.5v-3q4 -99 7 -197.5t5 -197.5h30h42h42h30q14 0 21 -8t9 -18v-1v-3q0 -10 -7 -19.5t-23 -9.5h-29h-41h-42h-30l5 -128l4 -130l4 -128l4 -130q1 -16 1 -31q0 -73 -17 -136q-19 -77 -52 -134q-20 -41 -47 -71.5t-53 -51.5q-27 -20 -52.5 -31.5 t-47.5 -11.5q-80 0 -108 78t-28 172v3v3zM70 -92v-19v-16q0 -45 7 -87t27 -75q8 -12 16 -17q5 -4 10 -4q2 0 3 1q10 0 18.5 8t16.5 20q18 27 29.5 71t11.5 101v-2q0 55 -1 107.5t-3 105.5t-3 107.5t-1 107.5q-37 -43 -64.5 -110.5t-44.5 -145.5q-8 -33 -14 -72.5t-8 -80.5z " />
</font>
</defs>
</svg>
